<?xml version="1.0" encoding="UTF-8" standalone="no"?>
<svg width="24px" height="20px" viewBox="0 0 24 20" version="1.1" xmlns="http://www.w3.org/2000/svg" xmlns:xlink="http://www.w3.org/1999/xlink">
    <!-- Generator: Sketch 46.2 (44496) - http://www.bohemiancoding.com/sketch -->
    <title>Path Copy 7</title>
    <desc>Created with Sketch.</desc>
    <defs></defs>
    <g id="✎--About-Us" stroke="none" stroke-width="1" fill="none" fill-rule="evenodd">
        <g id="About-Us---1120" transform="translate(-88.000000, -2421.000000)" fill="#D0D2D5">
            <path d="M112,2423.3676 C111.117,2423.76955 110.168,2424.04025 109.172,2424.16227 C110.188,2423.53781 110.969,2422.54832 111.337,2421.36914 C110.386,2421.94847 109.332,2422.36785 108.21,2422.59549 C107.312,2421.61318 106.032,2421 104.616,2421 C101.897,2421 99.692,2423.26096 99.692,2426.04896 C99.692,2426.44476 99.736,2426.8303 99.82,2427.19944 C95.728,2426.98923 92.099,2424.97949 89.671,2421.92387 C89.247,2422.67034 89.004,2423.53679 89.004,2424.4627 C89.004,2426.21405 89.873,2427.76032 91.195,2428.66573 C90.388,2428.63804 89.628,2428.41143 88.964,2428.03409 L88.964,2428.09664 C88.964,2430.54319 90.661,2432.5837 92.914,2433.04717 C92.501,2433.16406 92.065,2433.22456 91.617,2433.22456 C91.299,2433.22456 90.991,2433.19277 90.69,2433.13432 C91.317,2435.13996 93.135,2436.6001 95.29,2436.64112 C93.604,2437.99462 91.481,2438.80159 89.175,2438.80159 C88.777,2438.80159 88.385,2438.77801 88,2438.73186 C90.179,2440.16329 92.767,2441 95.548,2441 C104.605,2441 109.557,2433.30659 109.557,2426.63445 C109.557,2426.41605 109.552,2426.19867 109.543,2425.98231 C110.505,2425.26967 111.34,2424.38067 112,2423.3676" id="Path-Copy-7"></path>
        </g>
    </g>
</svg>