<svg xmlns="http://www.w3.org/2000/svg" viewBox="0 0 739.92 136.03"><title>New_Relic_logo_black</title><g data-name="Layer 2"><g data-name="b w - logo"><path d="M260 106l-20.26-42.34c-4.82-10-9.77-21.36-11.46-26.7l-.39.39c.65 7.55.78 17.06.91 25l.52 43.63h-14.69V15.87h16.93l21.88 44A164.22 164.22 0 0 1 262.69 83l.39-.39c-.39-4.56-1.3-17.45-1.3-25.66l-.26-41.15h14.22V106zM302.53 77v1c0 9.12 3.39 18.75 16.28 18.75 6.12 0 11.46-2.21 16.41-6.51l5.6 8.73a35.59 35.59 0 0 1-23.7 8.73c-18.62 0-30.34-13.41-30.34-34.51 0-11.59 2.47-19.27 8.21-25.79 5.34-6.12 11.85-8.86 20.19-8.86a25.45 25.45 0 0 1 18.1 6.77c5.73 5.21 8.6 13.28 8.6 28.65v3zm12.63-27.63c-8.07 0-12.5 6.38-12.5 17.06H327c0-10.71-4.67-17.11-11.84-17.11zM418 106.25h-13.37l-8.07-30.34c-2.08-7.81-4.3-18-4.3-18H392a188.21 188.21 0 0 1-4.3 18.62l-8 29.72h-13.4L348.34 41l14.2-2 7.2 32c1.82 8.21 3.39 17.32 3.39 17.32h.39a178.89 178.89 0 0 1 3.78-17.71l8.44-30.48h14.07l7.42 29.69c2.74 10.68 4.17 18.75 4.17 18.75h.39s1.56-10 3.26-17.71l6.77-30.73h14.85zM520.14 106l-7.81-13.94C506.08 81 501.91 74.73 497 69.78a7.64 7.64 0 0 0-5.9-2.78v39h-14.72V15.87h27.48c20.19 0 29.3 11.72 29.3 25.79 0 12.89-8.33 24.74-22.4 24.74 3.26 1.69 9.25 10.42 13.93 18L538 106zM499.3 28h-8.21v28.51h7.65c7.81 0 12-1 14.72-3.78 2.47-2.47 4-6.25 4-10.94.08-9.12-4.87-13.79-18.16-13.79zM557.64 77v1c0 9.12 3.39 18.75 16.28 18.75 6.12 0 11.46-2.21 16.41-6.51l5.6 8.73a35.59 35.59 0 0 1-23.7 8.73c-18.62 0-30.34-13.41-30.34-34.51 0-11.59 2.47-19.27 8.21-25.79 5.34-6.12 11.85-8.86 20.19-8.86a25.45 25.45 0 0 1 18.1 6.77c5.73 5.21 8.6 13.28 8.6 28.65v3zm12.64-27.63c-8.07 0-12.5 6.38-12.5 17.06h24.35c0-10.71-4.69-17.11-11.85-17.11zM623.8 107.42c-14.46 0-14.46-13-14.46-18.62V32.67A106.72 106.72 0 0 0 608 13.4l14.7-3.26c1 4 1.17 9.51 1.17 18.1v55.87c0 8.86.39 10.29 1.43 11.85A4 4 0 0 0 630 97l2.34 8.86a22.48 22.48 0 0 1-8.54 1.56zM648.67 30.32a9.34 9.34 0 0 1-9.25-9.43v-.08a9.44 9.44 0 1 1 9.37 9.51zM641.51 106V41.13l14.49-2.6V106zM697 107.68c-18 0-28-12.63-28-33.86 0-24 14.33-35.42 29-35.42 7.16 0 12.37 1.69 18.23 7.16l-7.16 9.51C705.15 51.55 701.77 50 698 50a11.2 11.2 0 0 0-10.42 6.64c-2 4-2.73 10.16-2.73 18.36 0 9 1.43 14.72 4.43 18a11.58 11.58 0 0 0 8.72 3.77c4.56 0 9-2.21 13.28-6.51l6.77 8.74c-5.96 6-12.21 8.68-21.05 8.68zM730.3 107.43a9.67 9.67 0 1 1 9.62-9.72 9.63 9.63 0 0 1-9.59 9.67zm0-17.42a7.78 7.78 0 1 0 7.43 8.11v-.36A7.55 7.55 0 0 0 730.4 90h-.09zm1.9 13.1c-.42-.73-.6-1-1-1.79-1.07-2-1.4-2.5-1.79-2.65a.71.71 0 0 0-.34-.08v4.52h-2.13V92.32h4a3 3 0 0 1 3.2 3.17 2.78 2.78 0 0 1-2.42 3 2.44 2.44 0 0 1 .44.47c.62.78 2.6 4.21 2.6 4.21zm-1.14-8.94a4.35 4.35 0 0 0-1.22-.16h-.78v2.94h.68c.94 0 1.35-.1 1.64-.36a1.53 1.53 0 0 0 .42-1.09 1.27 1.27 0 0 0-.74-1.33zM75.54 136c-37.34 0-67.9-20.58-74.31-50.1-7.86-36.17 22.64-73.62 68-83.49A104.77 104.77 0 0 1 91.45 0c37.34 0 67.9 20.61 74.31 50.12 3.83 17.61-1.19 36-14.14 51.81s-32 26.92-53.86 31.68A104.73 104.73 0 0 1 75.54 136zM91.44 4a100.76 100.76 0 0 0-21.36 2.32C26.88 15.71-2.26 51 5.14 85.05c6 27.66 35 47 70.4 47a100.79 100.79 0 0 0 21.37-2.32c21-4.57 39.34-15.33 51.61-30.3s16.89-32 13.33-48.43c-6-27.68-35-47-70.4-47z"/><path d="M90.66 117.7a48.52 48.52 0 1 1 48.53-48.52 48.52 48.52 0 0 1-48.53 48.52zm0-93a44.52 44.52 0 1 0 44.53 44.52A44.52 44.52 0 0 0 90.66 24.7z"/><path d="M83.5 98.32A30.3 30.3 0 1 1 113.8 68a30.34 30.34 0 0 1-30.3 30.32zm0-56.6A26.3 26.3 0 1 0 109.8 68a26.33 26.33 0 0 0-26.3-26.28z"/></g></g></svg>