<svg xmlns="http://www.w3.org/2000/svg" viewBox="0 0 148.8 41.7"><title>Segment_logo_black</title><g data-name="Layer 2"><g data-name="Layer 1"><g data-name="&lt;Group&gt;"><g data-name="&lt;Group&gt;"><path data-name="&lt;Path&gt;" d="M58.4 20.1l-2.6-.6a2.26 2.26 0 0 1-2-2.3c0-1.5 1.3-2.6 3.1-2.6a3.09 3.09 0 0 1 3.3 2.4.78.78 0 0 0 .4.4.45.45 0 0 0 .5 0l1.4-.5a.68.68 0 0 0 .4-.8c-.4-1.3-1.7-4.2-6.1-4.2-3.3 0-6.1 2.5-6.1 5.5 0 2.6 1.7 4.5 4.5 5.1l2.5.5a2.58 2.58 0 0 1 2.4 2.5c0 1.6-1.3 2.5-3.3 2.5a3.77 3.77 0 0 1-3.9-3.1.85.85 0 0 0-.3-.5 1.27 1.27 0 0 0-.6-.1l-1.5.5a.79.79 0 0 0-.5.8c.5 2.5 2.5 5.1 6.8 5.1 3.6 0 6.3-2.4 6.3-5.5.1-2.5-1.6-4.4-4.7-5.1z"/><path data-name="&lt;Compound Path&gt;" d="M71 17.6a6.3 6.3 0 0 0-6 6.6 6.41 6.41 0 0 0 1.9 4.9 6.2 6.2 0 0 0 4.4 1.7 5.59 5.59 0 0 0 5.4-3.5.64.64 0 0 0 0-.6.78.78 0 0 0-.4-.4l-1.2-.4a.74.74 0 0 0-.9.4 3 3 0 0 1-3 1.9 3.34 3.34 0 0 1-3.3-2.9v-.1h8.2a.67.67 0 0 0 .7-.6v-.4c.2-4.1-2.1-6.6-5.8-6.6zm3 4.9v.1l-.1.1h-5.6a.1.1 0 0 1-.1-.1v-.1a2.93 2.93 0 0 1 2.9-2.3 2.82 2.82 0 0 1 2.9 2.3zM90 17.9h-1.5a.68.68 0 0 0-.7.7.1.1 0 0 1-.1.1h-.1a4.55 4.55 0 0 0-3.2-1c-3.3 0-5.7 2.5-5.7 6.1a5.65 5.65 0 0 0 5.7 6 4.69 4.69 0 0 0 3.1-1.1h.1a.1.1 0 0 1 .1.1v.5c0 2.4-1.1 3.6-3.4 3.6a2.82 2.82 0 0 1-2.9-2.3c0-.2-.1-.3-.3-.4a.9.9 0 0 0-.5-.1l-1.4.3a.62.62 0 0 0-.5.8 5.5 5.5 0 0 0 5.7 4.2 6.32 6.32 0 0 0 4.9-1.9 6.73 6.73 0 0 0 1.4-4.3V18.6a.75.75 0 0 0-.7-.7zm-5.2 9.4c-2 0-3.2-1.4-3.2-3.5s1.2-3.5 3.2-3.5 3.1 1.4 3.1 3.5-1.2 3.5-3.1 3.5z"/><path data-name="&lt;Path&gt;" d="M107.5 17.6a4.39 4.39 0 0 0-3.8 1.8l-.1.1a.1.1 0 0 1-.1-.1 4.09 4.09 0 0 0-3.5-1.8 4.69 4.69 0 0 0-3.1 1.1c-.1.1-.1 0-.2 0a.1.1 0 0 1-.1-.1.68.68 0 0 0-.7-.7h-1.4a.68.68 0 0 0-.7.7v11.1a.68.68 0 0 0 .7.7H96a.68.68 0 0 0 .7-.7v-6.8a2.47 2.47 0 0 1 2.5-2.7c2 0 2.2 1.5 2.2 2.4v7.1a.68.68 0 0 0 .7.7h1.5a.68.68 0 0 0 .7-.7v-6.8a2.47 2.47 0 0 1 2.5-2.7c2 0 2.2 1.5 2.2 2.4v7.1a.68.68 0 0 0 .7.7h1.5a.68.68 0 0 0 .7-.7v-7.3c0-3.3-2.2-4.8-4.4-4.8z"/><path data-name="&lt;Compound Path&gt;" d="M120.2 17.6a6.3 6.3 0 0 0-6 6.6 6.41 6.41 0 0 0 1.9 4.9 6.2 6.2 0 0 0 4.4 1.7 5.59 5.59 0 0 0 5.4-3.5.64.64 0 0 0 0-.6.78.78 0 0 0-.4-.4l-1.2-.4a.74.74 0 0 0-.9.4 3 3 0 0 1-3 1.9 3.34 3.34 0 0 1-3.3-2.9v-.1h8.2a.67.67 0 0 0 .7-.6v-.4c.2-4.1-2.1-6.6-5.8-6.6zm-2.8 5.1a.1.1 0 0 1-.1-.1v-.1a2.93 2.93 0 0 1 2.9-2.3 2.86 2.86 0 0 1 3 2.3v.1l-.1.1z"/><path data-name="&lt;Path&gt;" d="M134.9 17.6a4.72 4.72 0 0 0-3.2 1.2c-.1.1-.1 0-.1 0a.1.1 0 0 1-.1-.1v-.1a.68.68 0 0 0-.7-.7h-1.4a.68.68 0 0 0-.7.7v11.1a.68.68 0 0 0 .7.7h1.5a.68.68 0 0 0 .7-.7v-6.5c0-1.4.7-3 2.5-3s2.5.9 2.5 2.7v6.7a.68.68 0 0 0 .7.7h1.5a.68.68 0 0 0 .7-.7v-7.1c-.1-3-1.8-4.9-4.6-4.9zM146.4 20.6h1.7a.68.68 0 0 0 .7-.7v-1.3a.68.68 0 0 0-.7-.7h-1.7a.1.1 0 0 1-.1-.1v-2.9a.68.68 0 0 0-.7-.7h-1.3a.68.68 0 0 0-.7.7v1.5A1.46 1.46 0 0 1 142 18h-.2a.68.68 0 0 0-.7.7V20a.68.68 0 0 0 .7.7h1.4a.1.1 0 0 1 .1.1v6.1a3.39 3.39 0 0 0 3.6 3.7c.6 0 1.1-.1 1.3-.1a.67.67 0 0 0 .5-.7v-1.2a.68.68 0 0 0-.7-.7h-.4c-1 0-1.4-.4-1.4-1.4v-5.8c.1 0 .1-.1.2-.1z"/></g><path data-name="&lt;Path&gt;" d="M28 28.4H2.2A2.14 2.14 0 0 1 0 26.3a2.22 2.22 0 0 1 2.2-2.2H28a2.22 2.22 0 0 1 2.2 2.2 2.14 2.14 0 0 1-2.2 2.1zM22.5 41.7a21.63 21.63 0 0 1-6.2-.9 2.15 2.15 0 0 1 1.3-4.1 16.14 16.14 0 0 0 4.9.7 16.41 16.41 0 0 0 15.8-11.7 2.15 2.15 0 0 1 4.1 1.3 20.82 20.82 0 0 1-19.9 14.7zM42.8 17.5H16.9a2.2 2.2 0 0 1 0-4.4h25.9a2.2 2.2 0 1 1 0 4.4zM4.6 17.5a1.27 1.27 0 0 1-.6-.1 2.13 2.13 0 0 1-1.4-2.7A20.52 20.52 0 0 1 22.5 0a21.63 21.63 0 0 1 6.2.9 2.17 2.17 0 0 1 1.4 2.7A2.17 2.17 0 0 1 27.4 5 16.79 16.79 0 0 0 6.6 16a2 2 0 0 1-2 1.5z"/><circle data-name="&lt;Path&gt;" cx="35.3" cy="7.1" r="2.2"/><circle data-name="&lt;Path&gt;" cx="9.7" cy="34.5" r="2.2"/></g></g></g></svg>