<svg xmlns="http://www.w3.org/2000/svg" viewBox="0 0 600 101.09"><title>DigitalOcean_logo_horizontal_black</title><g data-name="Layer 2"><g data-name="Layer 1"><g data-name="&lt;Group&gt;"><g data-name="&lt;Group&gt;"><g data-name="&lt;Group&gt;"><path data-name="&lt;Path&gt;" d="M50.6 101.09v-19.6c20.8 0 36.8-20.6 28.9-42.4A29.66 29.66 0 0 0 62 21.59c-21.8-7.9-42.4 8.1-42.4 28.9l-19.6.1c0-33.1 32-58.9 66.7-48.1a48.68 48.68 0 0 1 31.9 31.9c10.8 34.7-14.9 66.7-48 66.7z"/></g><path data-name="&lt;Path&gt;" d="M50.6 81.59H31.1v-19.5h19.5v19.5zM31.1 96.59h-15v-15h15v15zM16.1 81.59H3.5v-12.6h12.6v12.6z"/></g><g data-name="&lt;Group&gt;"><path data-name="&lt;Compound Path&gt;" d="M180 29.19c-5.8-4-13-6.1-21.4-6.1h-18.3v58.1h18.3c8.4 0 15.6-2.1 21.4-6.4a21.5 21.5 0 0 0 7.4-9.3 34.16 34.16 0 0 0 2.6-13.7 34 34 0 0 0-2.6-13.6 21.21 21.21 0 0 0-7.4-9zM151 33h5.8c6.4 0 11.7 1.3 15.7 3.7 4.4 2.7 6.7 7.8 6.7 15.1 0 7.6-2.3 12.9-6.7 15.8-3.8 2.5-9.1 3.8-15.6 3.8H151z"/><path data-name="&lt;Path&gt;" d="M202.8 22.49a6.32 6.32 0 0 0-6.4 6.2 5.83 5.83 0 0 0 1.9 4.5 6.19 6.19 0 0 0 4.5 1.9 5.83 5.83 0 0 0 4.5-1.9 6.36 6.36 0 0 0 1.9-4.5 5.48 5.48 0 0 0-1.9-4.4 6.27 6.27 0 0 0-4.5-1.8zM197.5 40.39h10.3v41h-10.3z"/><path data-name="&lt;Compound Path&gt;" d="M245.3 43.79a15.39 15.39 0 0 0-10.3-4.4 18.92 18.92 0 0 0-14.1 5.8c-3.7 3.8-5.5 8.8-5.5 14.7a20.81 20.81 0 0 0 5.5 14.7 18.92 18.92 0 0 0 14.1 5.8 16 16 0 0 0 10.2-3.3V78c0 3.4-.9 6-2.7 7.9a10.05 10.05 0 0 1-7.4 2.7c-4.8 0-7.7-1.9-11.4-6.8l-7 6.7.2.3a25.09 25.09 0 0 0 6.9 6.2 20.71 20.71 0 0 0 11.5 3c6.1 0 11.1-1.9 14.7-5.6s5.5-8.7 5.5-14.9V40.39h-10.1v3.4zM242.6 68a9 9 0 0 1-7.1 3 8.65 8.65 0 0 1-7-3 11.57 11.57 0 0 1-2.7-8 11.83 11.83 0 0 1 2.7-8.1 9 9 0 0 1 7-3.1 8.77 8.77 0 0 1 7.1 3.1 11.83 11.83 0 0 1 2.7 8.1 12.07 12.07 0 0 1-2.7 8z"/><path data-name="&lt;Path&gt;" d="M264.2 40.39h10.3v41h-10.3zM269.5 22.49a6.32 6.32 0 0 0-6.4 6.2 5.83 5.83 0 0 0 1.9 4.5 6.19 6.19 0 0 0 4.5 1.9 5.83 5.83 0 0 0 4.5-1.9 6.36 6.36 0 0 0 1.9-4.5 5.48 5.48 0 0 0-1.9-4.4 6.27 6.27 0 0 0-4.5-1.8zM297.1 29.29H287v11.1h-5.9v9.4h5.9v17c0 5.3 1.1 9.1 3.2 11.3s5.8 3.3 11.1 3.3c1.7 0 3.4-.1 5-.2h.5v-9.4l-3.5.2c-2.5 0-4.1-.4-4.9-1.3s-1.2-2.7-1.2-5.4v-15.5h9.6v-9.4h-9.6v-11.1zM355 23.19h10.3v58.1H355zM469.4 66.69a24.45 24.45 0 0 1-5.2 4.8 9.71 9.71 0 0 1-5.3 1.4 9.48 9.48 0 0 1-7.5-3.4 12.78 12.78 0 0 1-3-8.7 12.78 12.78 0 0 1 2.9-8.6 9.29 9.29 0 0 1 7.4-3.4c3.3 0 6.8 2.1 9.8 5.6l6.8-6.5a20.22 20.22 0 0 0-16.9-8.5 20 20 0 0 0-14.6 6.1 20.88 20.88 0 0 0-6 15.3 21 21 0 0 0 6 15.3 19.64 19.64 0 0 0 14.6 6.1 20.21 20.21 0 0 0 17.5-9.1z"/><path data-name="&lt;Compound Path&gt;" d="M511.7 46.09a16.69 16.69 0 0 0-5.9-4.9 19.3 19.3 0 0 0-8.5-1.8 17.35 17.35 0 0 0-14 6.3 23.69 23.69 0 0 0-5.2 15.4q0 9.3 5.7 15.3c3.7 3.9 8.8 5.9 14.9 5.9a20.26 20.26 0 0 0 16.9-8.4l.2-.3-6.7-6.5a25.51 25.51 0 0 1-2.3 2.4 11.48 11.48 0 0 1-3 2.2 11 11 0 0 1-5.2 1.1 9.69 9.69 0 0 1-7-2.5 8.89 8.89 0 0 1-2.9-6.2H516l.1-3.8a26.85 26.85 0 0 0-1.1-7.6 21.52 21.52 0 0 0-3.3-6.6zm-22.5 9.6a10.23 10.23 0 0 1 2.7-4.9 7.31 7.31 0 0 1 5.4-2.1 7.4 7.4 0 0 1 5.7 2.1 8.12 8.12 0 0 1 2.1 4.8h-15.9zM551.3 43.39c-3.1-2.7-7.4-4-12.8-4a21.74 21.74 0 0 0-9.5 2.2 17 17 0 0 0-7 6.6l.1.1 6.6 6.3c2.7-4.3 5.7-5.8 9.7-5.8a8.21 8.21 0 0 1 5.3 1.7 5.27 5.27 0 0 1 2 4.4v2a25.61 25.61 0 0 0-7.6-1.2c-5.1 0-9.3 1.2-12.4 3.6a12.31 12.31 0 0 0-4.7 10.2 11.69 11.69 0 0 0 4 9.3 15.23 15.23 0 0 0 9.9 3.4 17.25 17.25 0 0 0 10.9-4.3v3.4h10.1V55c.2-5-1.4-8.91-4.6-11.61zM533 65.69a8.66 8.66 0 0 1 4.9-1.2 22.42 22.42 0 0 1 7.8 1.5v4c-2.2 2.1-5.2 3.1-8.9 3.1a6.08 6.08 0 0 1-4.1-1.2 3.89 3.89 0 0 1 .3-6.2z"/><path data-name="&lt;Path&gt;" d="M595.7 44.19q-4.35-4.8-12-4.8a14.07 14.07 0 0 0-9.9 3.5v-2.5h-10.1v41H574v-22.7c0-3.1.7-5.6 2.2-7.3a7.28 7.28 0 0 1 6.1-2.6 6.8 6.8 0 0 1 5.4 2.3 9.8 9.8 0 0 1 2 6.4v23.7H600v-23.6c0-5.7-1.4-10.2-4.3-13.4z"/><path data-name="&lt;Compound Path&gt;" d="M342.1 43.39c-3.1-2.7-7.4-4-12.8-4a21.74 21.74 0 0 0-9.5 2.2 17 17 0 0 0-7 6.6l.1.1 6.6 6.3c2.7-4.3 5.7-5.8 9.7-5.8a8.21 8.21 0 0 1 5.3 1.7 5.27 5.27 0 0 1 2 4.4v2a25.61 25.61 0 0 0-7.6-1.2c-5.1 0-9.3 1.2-12.4 3.6a12.31 12.31 0 0 0-4.7 10.2 11.69 11.69 0 0 0 4 9.3 15.23 15.23 0 0 0 9.9 3.4 17.25 17.25 0 0 0 10.9-4.3v3.4h10.1V55c.1-5-1.5-8.91-4.6-11.61zm-18.3 22.3a8.66 8.66 0 0 1 4.9-1.2 22.42 22.42 0 0 1 7.8 1.5v4c-2.2 2.1-5.2 3.1-8.9 3.1a6.08 6.08 0 0 1-4.1-1.2 3.75 3.75 0 0 1-1.4-3 3.51 3.51 0 0 1 1.7-3.2zM402.7 82.19a30 30 0 1 1 30-30 30 30 0 0 1-30 30zm0-49.4a19.4 19.4 0 1 0 19.4 19.4 19.42 19.42 0 0 0-19.4-19.4z"/></g></g></g></g></svg>