<svg xmlns="http://www.w3.org/2000/svg" viewBox="0 0 283.71 48.35"><title>Barclays_logo_black</title><g data-name="Layer 2"><g data-name="Logo Capital gry pos"><path d="M69.9 40.92H57.54c1.56-1.38 2-6.73 2.65-16.16l.14-2.2c.37-5.36.64-9.48.59-12.36 0-2.47-.32-4.07-1-4.63h13.83c3.3 0 9.89.18 9.89 7 0 4.58-4.26 7.42-8.14 8.43 5.49.55 9.61 3.21 9.61 8.88 0 6.13-5.77 11-15.2 11m-.55-17.08h-2.52l-.37 5.22c-.18 2.29-.27 4.21-.32 6.5 0 .32 1 1 3.39 1 4.94 0 8.19-2.47 8.19-6.55 0-4.53-3.71-6.18-8.37-6.18m1.14-14a23.38 23.38 0 0 0-2.5.14c-.37 2.47-.59 4.85-.78 7.46 0 0-.14 2.24-.14 2.15H68c4.48 0 8.61-1.56 8.61-5.67 0-2.38-2-4-6.13-4m43.58 31.4c-3 0-3.25-.09-5.68-8.42l-.87-3.07c-1.47.68-4.07 1-8.24 1h-4.19l-.73 1.55c-.73 1.65-2.52 5-2.47 7a5.78 5.78 0 0 0 .23 1.6h-8.48c2.43-2.43 5.49-8.06 9.75-17.17l2.47-5.26c2.24-4.76 4.62-10.16 4.62-10.94a5 5 0 0 0-.46-2h7.69s2 7.65 3.8 14l1.5 5.61c2.61 9.39 4.26 14 6.45 15.75-2 .23-4.44.32-5.4.32M103 13.87l-5.77 12.31h9.3L103 13.87m44.58 28.57c-2.61 0-3.25-.42-4.12-1.61l-9.93-13.73c-.78-1.05-1.37-1.92-2.61-1.92h-.23l-.18 2.66c-.23 3.62-.37 6.5-.37 8.65 0 2.38.32 3.85 1 4.44h-9.56c1.37-1.24 1.87-5.36 2.65-16.16l.14-2.24c.36-5.31.64-9.43.59-12.31 0-2.52-.32-4.07-1-4.62h13c4.26 0 10.11.74 10.11 7.65 0 5.68-3.8 8.79-8.51 10.25a23.4 23.4 0 0 1 1.79 2.11l7.19 9.52c4.48 5.9 4.85 6.18 6.45 7a63.85 63.85 0 0 1-6.45.32M134.76 9.88c-.87 0-1.92 0-2.74.09-.28 1.51-.51 4.12-.82 8.33l-.2 2.48a8.83 8.83 0 0 0 1.6.14c4.4 0 7.42-2.65 7.42-6.68 0-2.75-1.92-4.35-5.27-4.35m31.58 31.73c-9.11 0-14.37-7.51-14.37-15.93C152 14 158.33 4.9 170.47 4.9c3.8 0 5.59.68 8.65.68l-.91 9a9.4 9.4 0 0 0-8.38-5.31c-7.55 0-10.62 8.15-10.62 15.15 0 7.6 4.26 11.76 9.93 11.76 3.07 0 5.77-.82 10.3-4-1.83 5.86-6.09 9.39-13.09 9.39m62.3-.37c-3 0-3.25-.09-5.68-8.42l-.87-3.07c-1.47.68-4.07 1-8.24 1h-4.21l-.73 1.55c-1.06 2.34-2.47 5.08-2.47 7a5.56 5.56 0 0 0 .23 1.6h-25c1.42-1.6 1.88-6.78 2.57-16.16l.14-2.24c.37-5.36.65-9.48.6-12.36 0-2.38-.28-3.89-.92-4.58h9.66c-1.37 1.06-1.88 6.73-2.52 16.12l-.21 2.3c-.23 3.48-.69 7.05-.69 10.53 0 1.6.64 2 2.29 2 5.86 0 7.32-.13 10-1.92 1.65-3 3.53-6.82 5.36-10.76l2.47-5.26c2.33-4.95 4.62-10 4.62-10.94a5 5 0 0 0-.45-2h7.69s3.11 11.54 3.8 14l1.51 5.58c2.61 9.39 4.25 14 6.46 15.75-1.83.23-4.44.32-5.4.32m-11.14-27.37l-5.68 12.31h9.25l-3.57-12.31m33.28 8c-.83 1.37-1.88 3.24-2.52 4.62a50.91 50.91 0 0 0-.82 9.93c0 1.6.27 3.75 1 4.49h-9.56c1.69-1.6 2.38-11.44 2.29-14.56a75.37 75.37 0 0 0-5.68-13.87c-1.69-3.25-3.66-6.31-4.9-6.91 2.15-.18 4.9-.32 6.23-.32 2.38 0 3 .32 4.48 3.52 2.29 5.17 4 9.06 5 11.95 2.43-3.8 4.12-6.41 6.32-10a6 6 0 0 0 1-3 3.66 3.66 0 0 0-.5-2.15h9.48c-1.83.42-10.07 13.37-11.81 16.3m32-7.92a9.42 9.42 0 0 0-8.06-4.67c-3 0-5.67 1.24-5.67 4.44 0 2.7 3.34 4.54 6.82 6.78 3.8 2.38 7.73 5.31 7.73 10.39 0 6.63-6.45 10.71-13.92 10.71a27.48 27.48 0 0 1-9.89-2l.59-8.84a10.65 10.65 0 0 0 9.8 6.32c3.71 0 6.45-1.78 6.45-4.9 0-2.65-2.24-4.31-5-5.95-5.76-3.43-9.42-6.23-9.42-11.23 0-7.55 6.31-10.07 12.86-10.07 3.8 0 6.18.68 8.61.68zM45.17 19.59a27.55 27.55 0 0 1-4.93 15.93.22.22 0 0 1-.36 0 20.07 20.07 0 0 1-3.64-4.94 1 1 0 0 0-.4.86 15.26 15.26 0 0 0 2.24 6c.51.82-.26 1.42-1 1a23.64 23.64 0 0 1-6.58-8.82 1.25 1.25 0 0 0-.46 1c0 1.37 1.66 5.82 5.29 10.09a.21.21 0 0 1 0 .32 38.11 38.11 0 0 1-12.71 7.29 38.08 38.08 0 0 1-12.74-7.26.21.21 0 0 1 0-.32c3.64-4.27 5.29-8.71 5.29-10.09a1.25 1.25 0 0 0-.45-1 23.63 23.63 0 0 1-6.59 8.82c-.78.5-1.54-.14-1-1a15.27 15.27 0 0 0 2.24-6 1 1 0 0 0-.4-.86 20 20 0 0 1-3.64 4.94.21.21 0 0 1-.36 0A27.52 27.52 0 0 1 0 19.59c0-10.72 4.52-14 8.43-14C11 5.61 12.75 7 12.75 8.8a2.15 2.15 0 0 1-1.47 2.13 3.61 3.61 0 0 0 3.35 1.3c2.69-.09 4.38-1.68 4.5-5.35.08-2.37-1.79-3.13-3.35-3.13-1 0-1.43.19-1.65.53-.85-1.22.51-3.62 4-3.62H19A1.68 1.68 0 0 1 20.25 0a11.16 11.16 0 0 1 3.3.32c2.26.73 2.66 2.49 2.78 6.15s1.53 5.66 4.22 5.75a3.62 3.62 0 0 0 3.35-1.3 2.15 2.15 0 0 1-1.48-2.12c0-1.77 1.73-3.19 4.31-3.19 3.92 0 8.44 3.25 8.44 13.98z"/></g></g></svg>