<svg xmlns="http://www.w3.org/2000/svg" viewBox="0 0 197.77 23.59"><title>Citadel_logo_black</title><g data-name="Layer 2"><g data-name="Layer 1"><path d="M0 16.53h45.23v6.51H0zM0 .42h9.05v6.51H0zM18.09.42h9.05v6.51h-9.05zM36.18.42h9.05v6.51h-9.05zM0 8.48h21.84v6.51H0zM23.39 8.48h21.84v6.51H23.39zM79.44 22.28c3-.1 3.65-.66 3.65-1.89V3.19c0-1.23-.66-1.83-3.65-1.93V.53H89.9v.73c-3 .1-3.65.7-3.65 1.93v17.2c0 1.23.66 1.79 3.65 1.89V23H79.44zM96.94 22.28c3-.1 3.85-.66 3.85-1.89V1.46h-1.66c-2.79 0-4.22 0-5.84 4.1l-.73-.07.2-5H112l.23 5-.73.07c-1.49-3.82-3-4.1-5.84-4.1H104v18.93c0 1.23.9 1.79 3.85 1.89V23H96.94zM156.56 22.28c2.89-.1 3.62-.66 3.62-1.89V3.19c0-1.23-.73-1.83-3.62-1.93V.53h18.26l.1 5h-.73c-1.39-4-2.52-4-6.31-4h-4.55v9.4h2c2.62 0 3.79-.6 4.65-4.15h.66V16H170c-.86-3.55-2-4.12-4.65-4.12h-2v10h4.55c4.45 0 5.94.12 7.41-4.13h.69l-.15 5.25h-19.29zM179.4 22.28c2.89-.1 3.62-.66 3.62-1.89V3.19c0-1.23-.73-1.83-3.62-1.93V.53h10.23v.73c-3 .1-3.45.66-3.45 1.93V21.9h3.32c4.38 0 5.94-1.31 7.54-6.16h.73L197.5 23h-18.1zM142.8.53h-9v.76c2.41.16 3.07.75 3.07 1.89v17.2c0 1.14-.65 1.71-3.07 1.86V23h9.31c8.37 0 12-5.61 12-11.65C155.11 5 151 .49 142.82.49m-.33 21.4H140V1.46h2.42c6 0 9 2.63 9 10.13s-1.93 10.34-9 10.34M129.62 19.26L122.58 0h-1.13l-6.91 17.3c-1.33 3.29-2.26 4.52-4.48 5v.7h7.47v-.7c-3-.5-3.29-1.23-1.89-4.85l1.16-3h7.74l1.79 5.18c.66 1.86.2 2.53-2.82 2.69V23h9.36v-.8c-2-.37-2.55-1.11-3.25-3m-12.45-5.71l3.65-9.4h.18l3.25 9.4zM69.09.9c-3.92 0-7.57 3.45-7.57 11 0 7.21 4.38 10.19 8.2 10.19a7.1 7.1 0 0 0 3.28-.85 7.6 7.6 0 0 0 2.64-2.31 9.45 9.45 0 0 0 1.1-2.22l.73.22a11 11 0 0 1-1.65 3.38 8 8 0 0 1-3.7 2.74 8.62 8.62 0 0 1-1.11.31 10.79 10.79 0 0 1-2.24.23C62.41 23.61 57.9 19 57.9 12.05S63 0 69.45 0a11.65 11.65 0 0 1 5.65 1.39h1.16l.24 2.17.5 3.78h-.7C74.73 3.22 72.44.9 69.09.9"/></g></g></svg>