<svg xmlns="http://www.w3.org/2000/svg" viewBox="0 0 2279.4 544.72"><title>Adobe_horizontal_logo_black</title><g data-name="Layer 2"><path d="M887.53 393.75l-31.12 144.72h-71.6L903.1 14h84.81l111.28 524.47h-72.37l-30.35-144.72H887.53zm100.37-58.36l-24.12-125.3c-7-35.8-14-82.46-19.44-119.83h-3.13C935.78 128.39 928 176.62 921 210.08l-24.9 125.3h91.81zM1372.46 0v441.21c0 28.81 1.56 70.83 3.1 97.27h-63l-4.67-45.9h-2.33c-12.45 26.45-41.24 52.14-79.36 52.14-70 0-112.84-76.28-112.84-193.76 0-133.85 56.79-196.88 116.73-196.88 30.34 0 54.46 14 67.69 42.8h1.56V0zm-73.16 304.26c0-7 0-15.55-.78-23.36-3.89-34.23-23.35-63.8-49.79-63.8-45.93 0-61.48 63.8-61.48 133.85 0 77.82 20.23 132.28 59.14 132.28 16.34 0 38.12-8.56 50.57-53.68 1.56-6.23 2.33-15.58 2.33-24.11V304.26zm247.4 240.44c-75.47 0-130-64.59-130-194.52 0-137.75 64.58-196.12 133.84-196.12 74.71 0 128.39 66.92 128.39 194.55 0 150.19-73.93 196.09-131.5 196.09h-.77zm2.32-57.57c45.12 0 55.25-80.15 55.25-137.73 0-56.82-10.12-137.74-56.79-137.74-48.26 0-57.59 80.92-57.59 137.74 0 63 10.89 137.73 58.36 137.73zM1723.06 0h73.14v203.09h1.56c19.45-34.23 45.91-49 79.37-49 64.58 0 105.06 73.15 105.06 189.1 0 135.39-55.25 201.54-117.51 201.54-37.35 0-58.36-20.25-74.72-53.71h-3.09l-3.9 47.47h-63c1.56-25.67 3.11-68.47 3.11-97.27V0zm73.14 404.62c0 8.59.78 17.15 3.11 23.36 11.66 45.93 34.24 55.25 49 55.25 43.58 0 59.92-57.57 59.92-135.39 0-72.37-17.11-130.74-60.7-130.74-24.12 0-43.58 28.79-49 56a143.4 143.4 0 0 0-2.33 25.68v105.84zm293.92-40.45c.78 97.27 42.79 121.38 87.14 121.38 26.46 0 49-6.21 65.37-14l10.89 52.92c-22.57 11.67-56.81 17.91-90.27 17.91-94.93 0-144.73-71.59-144.73-188.32 0-123.73 56.79-200 135.39-200s115.17 75.48 115.17 170.44c0 18.66-.79 30.35-1.56 40.45l-177.41-.78zM2199.83 312c.78-66.92-22.57-102.71-51.35-102.71-38.14 0-55.26 55.25-57.59 102.71zM372.58 15.4h218.5v523.07zm-153.93 0H0v523.07zm77 192.77l139.22 330.3h-91.25L302 433.27H200.08l95.55-225.1zm1967.22-55.07a16.6 16.6 0 0 1 16.52 16.68v.14a16.64 16.64 0 1 1-16.64-16.82h.12zm-.08 2.61c-7.39 0-13.46 6.37-13.46 14.21 0 8 6.07 14.28 13.54 14.28s13.45-6.28 13.45-14.2-6-14.29-13.45-14.29h-.08zm-3.14 24h-3v-18.77a34 34 0 0 1 5.32-.45 9.88 9.88 0 0 1 5.82 1.43 4.47 4.47 0 0 1 1.72 3.89 4.68 4.68 0 0 1-3.67 4.57v.14c1.65.3 2.78 1.8 3.14 4.57a15.26 15.26 0 0 0 1.21 4.64h-3.14c-.45-.61-.89-2.32-1.27-4.79s-1.65-3.29-4-3.29h-2.09v8.08zm0-10.4h2.17c2.46 0 4.58-.89 4.58-3.22 0-1.65-1.21-3.29-4.58-3.29a14.08 14.08 0 0 0-2.17.16zM619.89 15.4a16.6 16.6 0 0 1 16.52 16.68v.14a16.64 16.64 0 1 1-33.28 0 16.73 16.73 0 0 1 16.64-16.82h.12zm-.08 2.6c-7.41 0-13.46 6.37-13.46 14.21 0 8 6.06 14.28 13.54 14.28s13.46-6.28 13.46-14.2S627.36 18 619.89 18zm-3.14 24h-3V23.24a32.68 32.68 0 0 1 5.33-.44c2.84 0 4.71.58 5.82 1.41a4.48 4.48 0 0 1 1.72 3.89 4.68 4.68 0 0 1-3.67 4.57v.14c1.65.3 2.78 1.8 3.15 4.58a15.44 15.44 0 0 0 1.2 4.61h-3.14a13.58 13.58 0 0 1-1.27-4.79c-.45-2.4-1.65-3.29-4-3.29h-2.09V42zm0-10.4h2.17c2.46 0 4.57-.89 4.57-3.22 0-1.65-1.19-3.29-4.57-3.29a13.94 13.94 0 0 0-2.17.16z" data-name="Layer 1"/></g></svg>