<?xml version="1.0" encoding="UTF-8" standalone="no"?>
<svg width="22px" height="21px" viewBox="0 0 22 21" version="1.1" xmlns="http://www.w3.org/2000/svg" xmlns:xlink="http://www.w3.org/1999/xlink">
    <!-- Generator: Sketch 46.2 (44496) - http://www.bohemiancoding.com/sketch -->
    <title>Octocat Copy 3</title>
    <desc>Created with Sketch.</desc>
    <defs></defs>
    <g id="✎--About-Us" stroke="none" stroke-width="1" fill="none" fill-rule="evenodd">
        <g id="About-Us---1120" transform="translate(-128.000000, -2421.000000)" fill="#D0D2D5">
            <path d="M138.998987,2421 C132.925504,2421 128,2425.81994 128,2431.76606 C128,2436.52255 131.151539,2440.55734 135.522637,2441.98092 C136.072992,2442.08006 136.27355,2441.74762 136.27355,2441.46212 C136.27355,2441.20701 136.264097,2440.52959 136.258694,2439.63142 C133.198993,2440.28175 132.553424,2438.18802 132.553424,2438.18802 C132.05304,2436.94421 131.33184,2436.61309 131.33184,2436.61309 C130.333098,2435.94559 131.407471,2435.9588 131.407471,2435.9588 C132.511557,2436.03481 133.092299,2437.06845 133.092299,2437.06845 C134.073483,2438.71343 135.667148,2438.23825 136.293809,2437.96265 C136.393751,2437.26739 136.678044,2436.79286 136.99205,2436.52387 C134.549556,2436.25224 131.98146,2435.32831 131.98146,2431.20297 C131.98146,2430.02789 132.410264,2429.06628 133.113908,2428.31418 C133.00046,2428.04189 132.622978,2426.94678 133.221953,2425.46504 C133.221953,2425.46504 134.145063,2425.17556 136.246539,2426.56874 C137.12373,2426.3295 138.065073,2426.21053 139.000338,2426.20591 C139.934927,2426.21053 140.875595,2426.3295 141.754136,2426.56874 C143.854262,2425.17556 144.776021,2425.46504 144.776021,2425.46504 C145.376347,2426.94678 144.998864,2428.04189 144.886092,2428.31418 C145.591086,2429.06628 146.016514,2430.02789 146.016514,2431.20297 C146.016514,2435.33888 143.444366,2436.24894 140.994444,2436.51528 C141.388809,2436.84771 141.74063,2437.50465 141.74063,2438.50922 C141.74063,2439.94799 141.727125,2441.1092 141.727125,2441.46212 C141.727125,2441.75027 141.925658,2442.08534 142.48344,2441.98026 C146.851162,2440.55338 150,2436.52123 150,2431.76606 C150,2425.81994 145.074496,2421 138.998987,2421" id="Octocat-Copy-3"></path>
        </g>
    </g>
</svg>