<svg xmlns="http://www.w3.org/2000/svg" viewBox="0 0 1098.36 458.7"><title>Hewlett_Packard_Enterprise_logo_black</title><g data-name="Layer 2"><path d="M352.36 84.46H23.49v-61h328.87zM375.85 0H0v107.94h375.85V0zM23.49 286.33H0V178.4h23.49V221h42v-42.6H89v107.93H65.47V241.6h-42v44.73M124.54 239h28c-.52-7.94-3.8-13.47-13-13.47-6.91 0-13 2.94-15 13.47zm17.79 49.05c-23.84 0-40.07-15-40.07-39.71 0-24 15.89-40.59 37-40.59 23 0 34.37 15.37 34.37 38.34v8.64h-49.09c2.77 11.91 12.09 15 21.42 15 8.12 0 14-1.72 21.24-6.22h.87v17.79c-6.22 4.5-15 6.74-25.74 6.74M234.91 241.09l-12.09 45.24h-20.55l-23.49-76v-.86h22.46L214 254.9l12.09-45.42h18.31l12.26 45.42 13-45.42h21.6v.86l-23.49 76h-20.59l-12.26-45.24M329.4 288.06c-18.65 0-26.26-7.42-26.26-24.86v-84.8h22.8v83.24c0 5.35 2.07 7.25 6.56 7.25a17.16 17.16 0 0 0 5.18-1h.32v18.82a27.45 27.45 0 0 1-8.64 1.38M366.71 239h28c-.52-7.94-3.8-13.47-13-13.47-6.9 0-13 2.94-15 13.47zm17.79 49.05c-23.84 0-40.07-15-40.07-39.71 0-24 15.89-40.59 37-40.59 23 0 34.37 15.37 34.37 38.34v8.64h-49.09c2.76 11.91 12.09 15 21.42 15 8.12 0 14-1.72 21.25-6.22h.86v17.79c-6.22 4.5-15 6.74-25.74 6.74M509.38 209.48h16.93v18.3h-16.93V259c0 6.74 2.59 9.85 9.5 9.85a21.66 21.66 0 0 0 6.91-1h.51v18a40.66 40.66 0 0 1-14 2.24c-18.49 0-25.74-8.46-25.74-28v-32.3h-29.17V259c0 6.74 2.59 9.85 9.49 9.85a21.67 21.67 0 0 0 6.92-1h.51v18a40.69 40.69 0 0 1-14 2.24c-18.49 0-25.74-8.46-25.74-28v-32.3h-11.73v-18.3h11.75v-21.08h22.8v21.07h29.19v-21.07h22.8v21.07M603.14 231.41c11.93 0 17.62-6.73 17.62-16.4 0-10-5.69-16.75-17.62-16.75h-14.86v33.16h14.86zM644.6 215c0 23.49-15.72 36.26-39.56 36.26h-16.76v35.06H564.8V178.4H605c23.84 0 39.56 12.78 39.56 36.61M694.68 262.15v-6.56c-3.46-1.89-7.94-2.58-12.61-2.58-7.42 0-11.91 2.76-11.91 9 0 6.4 4.49 9.16 11.22 9.16 6.39 0 11.23-3.28 13.3-9zm.69 16.58c-5 6-12.43 9-20.39 9-15 0-27.29-9.14-27.29-25.39 0-15 12.27-25 29.88-25a60.73 60.73 0 0 1 17.1 2.58v-1.42c0-8.3-4.66-11.91-16.92-11.91a43.88 43.88 0 0 0-21.6 5.87h-.86v-18.31c5.87-3.45 16.24-6.39 26.42-6.39 23.15 0 35.76 11.05 35.76 30.4v48.18h-22.09v-7.6M729.06 248c0-24.7 17.45-40.24 40.26-40.24 8.12 0 15.71 1.73 21.42 5.87v19.52h-.87a28.62 28.62 0 0 0-17.61-6c-11.4 0-20 7.78-20 20.9s8.64 20.72 20 20.72a28.58 28.58 0 0 0 17.61-6.05h.87v19.52c-5.7 4.15-13.3 5.88-21.42 5.88-22.8 0-40.26-15.36-40.26-40.06M827.86 251.45v34.88h-22.8V178.4h22.79v61.48l23-30.4h25.91v.86l-27.63 34.89 27.63 40.24v.86h-26.1l-22.8-34.88M927.87 262.15v-6.56c-3.45-1.89-7.95-2.58-12.61-2.58-7.42 0-11.91 2.76-11.91 9 0 6.4 4.49 9.16 11.21 9.16 6.44-.03 11.24-3.31 13.31-9.02zm.69 16.58c-5 6-12.44 9-20.38 9-15 0-27.29-9.14-27.29-25.39 0-15 12.26-25 29.89-25a60.68 60.68 0 0 1 17.09 2.58v-1.42c0-8.3-4.66-11.91-16.93-11.91a43.87 43.87 0 0 0-21.6 5.87h-.86v-18.31c5.88-3.45 16.24-6.39 26.43-6.39 23.16 0 35.77 11.05 35.77 30.4v48.18h-22.12v-7.6M989 221.91c4.14-8.47 10.19-13.3 18.66-13.3a18 18 0 0 1 7.41 1.39v21.76h-.86a26 26 0 0 0-10-1.73c-7.08 0-12.61 4.15-14.51 12.09v44.22h-22.79v-76.86H989v12.44M1075.56 260.25v-24.7c-3.8-5.53-8.8-7.94-14.51-7.94-10 0-16.75 7.26-16.75 20.38s6.74 20.2 16.75 20.2c5.7.01 10.71-2.41 14.51-7.94zm.69 18.14c-4.83 6.22-12.44 9.67-22.79 9.67-19.7 0-32.3-18-32.3-40.06s12.61-40.24 32.3-40.24c10 0 17.27 3.11 22.11 8.81V178.4h22.8v107.93h-22.12v-7.93M0 321.58h66.68v13.12H15v33h46.84v12.79H15v35.92h51.68v13.12H0V321.58M121.77 352c17.1 0 26.6 11.23 26.6 29.7v47.84H134V382c0-9.84-5-16.93-15.89-16.93A20 20 0 0 0 99 378.91v50.61H84.64v-76H99v11.05A26.23 26.23 0 0 1 121.77 352M186.9 353.53h19.52v12.26H186.9v40.93c0 8.63 4.49 11.57 12.61 11.57a18.34 18.34 0 0 0 6.39-1h.52v12.26a23.33 23.33 0 0 1-9 1.56c-17.8 0-24.87-8.12-24.87-23v-42.32h-13.11v-12.26h13.13v-20.2h14.33v20.19M230.42 384.09h37.83c-.51-11.22-6-19.85-17.79-19.85-10.88 0-17.97 8.11-20.04 19.85zm22.63 47c-22.29 0-37.49-14.86-37.49-38.68S229.73 352 250.29 352c20.9 0 31.78 15 31.78 37.3v6.57H229.9c1.56 15.37 11.41 22.79 25.05 22.79 8.47 0 14.51-1.9 21.25-6.91h.52v12.61c-6.22 4.83-14.34 6.73-23.66 6.73M313.33 365.27a20.06 20.06 0 0 1 18.82-12.95c3.29 0 6.23.51 7.43 1.21v14.16h-.51c-2.08-1-5.53-1.55-9-1.55-7.77 0-14.33 5.18-16.75 13.81v49.56H299v-76h14.33v11.74M385.88 418.11c14.16 0 22.46-11.22 22.46-26.6 0-15.19-8.3-26.58-22.46-26.58-7.77 0-15 4.66-18.82 12.08v29.2a21.27 21.27 0 0 0 18.82 11.91zM388.3 352c22.62 0 34.72 18.48 34.72 39.54s-12.09 39.56-34.72 39.56c-9.33 0-17.28-4.83-21.24-10v37.6h-14.35V353.53h14.34v8.63C371 356.81 379 352 388.3 352M454.28 365.27a20 20 0 0 1 18.82-12.95c3.28 0 6.22.51 7.42 1.21v14.16H480c-2.07-1-5.53-1.55-9-1.55-7.77 0-14.34 5.18-16.76 13.81v49.56h-14.29v-76h14.33v11.74M501.26 322.79a9 9 0 1 1 0 18 9 9 0 1 1 0-18M494.18 429.51h14.34v-76h-14.34v76zM559.65 385.13c10.88 3.45 23 7.94 23 22.44 0 15.55-12.78 23.49-29.18 23.49-10 0-20-2.42-25.74-6.91v-13.63h.69c6.4 5.87 15.89 8.46 24.87 8.46 8.12 0 15.38-3.11 15.38-9.67 0-6.73-6-8.29-18-12.26C540 393.59 528 389.62 528 375.29c0-14.69 12.12-23.29 27.5-23.29 9 0 16.93 1.9 23.31 6.22V372h-.51a34.53 34.53 0 0 0-22.46-8c-9 0-14 4-14 9.33 0 6 5.53 7.77 17.8 11.74M609.91 384.09h37.82c-.51-11.22-6-19.85-17.79-19.85-10.88 0-17.94 8.11-20.03 19.85zm22.62 47c-22.28 0-37.48-14.86-37.48-38.68S609.22 352 629.77 352c20.91 0 31.78 15 31.78 37.3v6.57h-52.16c1.56 15.37 11.4 22.79 25 22.79 8.47 0 14.51-1.9 21.24-6.91h.52v12.61c-6.21 4.83-14.33 6.73-23.66 6.73"/></g></svg>