<svg xmlns="http://www.w3.org/2000/svg" width="24" height="24" viewBox="0 0 24 24"><path fill-rule="evenodd" d="M22 16a1 1 0 0 1-1 1H3a1 1 0 0 1-1-1V3a1 1 0 0 1 1-1h18a1 1 0 0 1 1 1v13zM21 1H3a2 2 0 0 0-2 2v13a2 2 0 0 0 2 2h7.959l-3.35 4.187a.502.502 0 0 0 .782.625L12 18.301l3.609 4.511a.502.502 0 0 0 .782-.625L13.041 18H21a2 2 0 0 0 2-2V3a2 2 0 0 0-2-2zm-3.646 5.646a.5.5 0 0 0-.666-.037l-4.65 3.722-1.684-1.684a.5.5 0 0 0-.674-.03l-6 5a.5.5 0 1 0 .64.766l5.65-4.706 1.676 1.677a.5.5 0 0 0 .666.037l4.65-3.721 1.684 1.684a.5.5 0 0 0 .707-.707l-2-2z"/></svg>