<svg xmlns="http://www.w3.org/2000/svg" width="24" height="24" viewBox="0 0 24 24"><path fill="#FFF" fill-rule="evenodd" d="M19 18H8a.5.5 0 0 0 0 1h11a.5.5 0 0 0 0-1zm0-4H8a.5.5 0 0 0 0 1h11a.5.5 0 0 0 0-1zM9 10h9V7H9v3zm0 1h9a1 1 0 0 0 1-1V7a1 1 0 0 0-1-1H9a1 1 0 0 0-1 1v3a1 1 0 0 0 1 1zm13 10c0 .552-.449 1-1 1H4.723c.172-.295.277-.634.277-1V3.5a.5.5 0 0 1 .5-.5h16a.5.5 0 0 1 .5.5V21zM4 21a1.001 1.001 0 0 1-2 0V8.5a.5.5 0 0 1 .5-.5H4v13zM21.5 2h-16A1.5 1.5 0 0 0 4 3.5V7H2.5A1.5 1.5 0 0 0 1 8.5V21a2 2 0 0 0 2 2h18a2 2 0 0 0 2-2V3.5A1.5 1.5 0 0 0 21.5 2z"/></svg>