<svg xmlns="http://www.w3.org/2000/svg" width="24" height="24" viewBox="0 0 24 24">
  <path fill="#000000" fill-rule="evenodd" d="M4,3 C3.724,3 3.5,3.224 3.5,3.5 C3.5,3.776 3.724,4 4,4 L18,4 C18.276,4 18.5,3.776 18.5,3.5 C18.5,3.224 18.276,3 18,3 L4,3 Z M10,22 L3,22 C2.449,22 2,21.552 2,21 L2,5.722 C2.295,5.894 2.634,6 3,6 L18.5,6 C18.776,6 19,6.225 19,6.5 L19,9 C19,9.276 19.224,9.5 19.5,9.5 C19.776,9.5 20,9.276 20,9 L20,6.5 C20,5.673 19.327,5 18.5,5 L3,5 C2.449,5 2,4.552 2,4 L2,3 C2,2.448 2.449,2 3,2 L19.5,2 C19.776,2 20,1.776 20,1.5 C20,1.224 19.776,1 19.5,1 L3,1 C1.897,1 1,1.897 1,3 L1,21 C1,22.103 1.897,23 3,23 L10,23 C10.276,23 10.5,22.776 10.5,22.5 C10.5,22.224 10.276,22 10,22 L10,22 Z M19.268,18.146 L18,19.414 L18,14.5 C18,14.224 17.776,14 17.5,14 C17.224,14 17,14.224 17,14.5 L17,19.414 L15.732,18.146 C15.537,17.951 15.22,17.951 15.025,18.146 C14.83,18.342 14.83,18.658 15.025,18.854 L17.146,20.975 C17.342,21.17 17.658,21.17 17.854,20.975 L19.975,18.854 C20.17,18.658 20.17,18.342 19.975,18.146 C19.78,17.951 19.463,17.951 19.268,18.146 L19.268,18.146 Z M17.5,23 C14.467,23 12,20.533 12,17.5 C12,14.468 14.467,12 17.5,12 C20.533,12 23,14.468 23,17.5 C23,20.533 20.533,23 17.5,23 L17.5,23 Z M17.5,11 C13.91,11 11,13.91 11,17.5 C11,21.09 13.91,24 17.5,24 C21.09,24 24,21.09 24,17.5 C24,13.91 21.09,11 17.5,11 L17.5,11 Z"/>
</svg>
