<svg xmlns="http://www.w3.org/2000/svg" viewBox="0 0 213.62 112.59"><title>Cisco_logo_black</title><g data-name="Layer 2"><g data-name="Layer 1"><path d="M60.42 74.81h9.37v37.12h-9.37zM145.31 85.45a16.37 16.37 0 0 0-7.88-2c-6.05 0-10.26 4.22-10.26 9.9 0 5.52 4 9.91 10.26 9.91a16.55 16.55 0 0 0 7.88-2v10a29.9 29.9 0 0 1-8.54 1.32c-10.54 0-19.78-7.26-19.78-19.22 0-11.08 8.37-19.21 19.78-19.21a28.62 28.62 0 0 1 8.54 1.33zM47.54 85.45a16.27 16.27 0 0 0-7.87-2c-6.07 0-10.27 4.22-10.27 9.9 0 5.52 4 9.91 10.27 9.91a16.44 16.44 0 0 0 7.87-2v10a29.71 29.71 0 0 1-8.54 1.33c-10.53 0-19.77-7.26-19.77-19.22 0-11.08 8.37-19.21 19.77-19.21a28.53 28.53 0 0 1 8.54 1.33zM194.39 93.36c0 10.62-8.2 19.22-19.61 19.22s-19.6-8.6-19.6-19.22 8.19-19.21 19.6-19.21 19.61 8.61 19.61 19.21zm-19.62-9.76a9.77 9.77 0 1 0 9.69 9.76 9.59 9.59 0 0 0-9.69-9.76zM105.3 83.25a32.09 32.09 0 0 0-7.3-1.14c-3.75 0-5.79 1.26-5.79 3 0 2.26 2.75 3 4.29 3.53l2.58.82c6.08 1.93 8.85 6.1 8.85 10.62 0 9.32-8.2 12.46-15.37 12.46a55.93 55.93 0 0 1-10.11-1V103a35.08 35.08 0 0 0 8.85 1.38c4.66 0 6.8-1.36 6.8-3.46 0-1.88-1.85-3-4.18-3.7l-2-.65c-5.22-1.65-9.57-4.71-9.57-10.86 0-6.94 5.2-11.6 13.83-11.6a40 40 0 0 1 9.13 1.18zM9.3 34.92a4.65 4.65 0 0 0-9.3 0v9.74a4.65 4.65 0 0 0 9.3 0zM34.84 22.13a4.65 4.65 0 0 0-9.3 0v22.53a4.65 4.65 0 0 0 9.3 0zM60.39 4.63a4.65 4.65 0 0 0-9.3 0v49.29a4.65 4.65 0 0 0 9.3 0zM85.93 22.13a4.65 4.65 0 0 0-9.3 0v22.53a4.65 4.65 0 0 0 9.3 0zM111.44 34.92a4.64 4.64 0 0 0-9.27 0v9.74a4.64 4.64 0 1 0 9.27 0zM137 22.13a4.64 4.64 0 1 0-9.27 0v22.53a4.64 4.64 0 1 0 9.27 0zM162.56 4.63a4.64 4.64 0 0 0-9.27 0v49.29a4.64 4.64 0 1 0 9.27 0zM188.11 22.13a4.66 4.66 0 0 0-9.33 0v22.53a4.66 4.66 0 0 0 9.33 0zM213.62 34.92a4.64 4.64 0 0 0-9.28 0v9.74a4.64 4.64 0 1 0 9.28 0zM208.25 107v.58h-1.65v4.31h-.68v-4.31h-1.66V107zM208.6 107h1.07l1.46 4 1.41-4h1v4.89h-.7v-4l-1.48 4h-.65l-1.45-4v4h-.68z"/></g></g></svg>