<svg xmlns="http://www.w3.org/2000/svg" viewBox="0 0 610.96 170.79"><defs><style>.cls-1,.cls-2{stroke:#000}.cls-1{stroke-miterlimit:10}.cls-2{stroke-width:3.06px}</style></defs><title>Spaceflight_logo_black</title><g id="Layer_2" data-name="Layer 2"><g id="Layer_1-2" data-name="Layer 1"><path class="cls-1" d="M41.9 97a7 7 0 0 0-.81-2.45 6.06 6.06 0 0 0-1.82-2 10.39 10.39 0 0 0-3.18-1.43 30.31 30.31 0 0 0-4.94-.88q-2.95-.3-7.08-.3h-6.2a45.36 45.36 0 0 1-6.08-.32 9.87 9.87 0 0 1-3.6-1.07 3.7 3.7 0 0 1-1.72-2A10.24 10.24 0 0 1 6 83.32a7.55 7.55 0 0 1 .64-3.25 4.75 4.75 0 0 1 2.19-2.15A12.49 12.49 0 0 1 13 76.71a47.62 47.62 0 0 1 6.54-.37h6c2.25 0 4.14.05 5.66.16a11.15 11.15 0 0 1 3.7.77 3.86 3.86 0 0 1 2 1.82 7.7 7.7 0 0 1 .61 3.36h4.5a15 15 0 0 0-.28-3.08 6.94 6.94 0 0 0-1-2.48A6.71 6.71 0 0 0 38.87 75a10.43 10.43 0 0 0-3-1.34 24.64 24.64 0 0 0-4.36-.79 58.21 58.21 0 0 0-5.92-.26h-6a55 55 0 0 0-6.56.34 25.15 25.15 0 0 0-4.8 1 11.75 11.75 0 0 0-3.32 1.55 7.76 7.76 0 0 0-2 2.13 8 8 0 0 0-1 2.63 15.77 15.77 0 0 0-.29 3.07 24.27 24.27 0 0 0 .17 3.07 7.6 7.6 0 0 0 .68 2.6 6.71 6.71 0 0 0 1.66 2A9.13 9.13 0 0 0 7 92.48a23.15 23.15 0 0 0 4.48.91 55.64 55.64 0 0 0 6.36.3h6.2q3 0 5.17.13a27.51 27.51 0 0 1 3.68.43 9.72 9.72 0 0 1 2.42.78 3.93 3.93 0 0 1 1.42 1.15 3.86 3.86 0 0 1 .67 1.62 11.77 11.77 0 0 1 .17 2.08 6.88 6.88 0 0 1-.65 3.18 4.59 4.59 0 0 1-2.35 2 15.86 15.86 0 0 1-4.6 1.07 70.16 70.16 0 0 1-7.42.31h-4.5c-2.25 0-4.14 0-5.68-.15a11.61 11.61 0 0 1-3.7-.74 3.84 3.84 0 0 1-2-1.8 7.4 7.4 0 0 1-.67-3.29H1.53a15.21 15.21 0 0 0 .28 3.07 7 7 0 0 0 1 2.48 6.44 6.44 0 0 0 1.93 1.88 10.69 10.69 0 0 0 3 1.32 24 24 0 0 0 4.36.78c1.69.17 3.66.23 5.91.23h4.51c2.76 0 5.15-.09 7.19-.29A32 32 0 0 0 35 109a12.85 12.85 0 0 0 3.55-1.48 7.77 7.77 0 0 0 2.18-2 6.85 6.85 0 0 0 1.1-2.56 15.32 15.32 0 0 0 .29-3.05A21.48 21.48 0 0 0 41.9 97"/><path class="cls-2" d="M41.9 97a7 7 0 0 0-.81-2.45 6.06 6.06 0 0 0-1.82-2 10.39 10.39 0 0 0-3.18-1.43 30.31 30.31 0 0 0-4.94-.88q-2.95-.3-7.08-.3h-6.2a45.36 45.36 0 0 1-6.08-.32 9.87 9.87 0 0 1-3.6-1.07 3.7 3.7 0 0 1-1.72-2A10.24 10.24 0 0 1 6 83.32a7.55 7.55 0 0 1 .64-3.25 4.75 4.75 0 0 1 2.19-2.15A12.49 12.49 0 0 1 13 76.71a47.62 47.62 0 0 1 6.54-.37h6c2.25 0 4.14.05 5.66.16a11.15 11.15 0 0 1 3.7.77 3.86 3.86 0 0 1 2 1.82 7.7 7.7 0 0 1 .61 3.36h4.5a15 15 0 0 0-.28-3.08 6.94 6.94 0 0 0-1-2.48A6.71 6.71 0 0 0 38.87 75a10.43 10.43 0 0 0-3-1.34 24.64 24.64 0 0 0-4.36-.79 58.21 58.21 0 0 0-5.92-.26h-6a55 55 0 0 0-6.56.34 25.12 25.12 0 0 0-4.8 1 11.75 11.75 0 0 0-3.32 1.55 7.76 7.76 0 0 0-2 2.13 8 8 0 0 0-1 2.63 15.77 15.77 0 0 0-.29 3.07 24.27 24.27 0 0 0 .17 3.07 7.6 7.6 0 0 0 .68 2.6 6.71 6.71 0 0 0 1.66 2A9.13 9.13 0 0 0 7 92.48a23.15 23.15 0 0 0 4.48.91 55.62 55.62 0 0 0 6.36.3h6.2q3 0 5.17.13a27.36 27.36 0 0 1 3.68.43 9.7 9.7 0 0 1 2.42.78 3.93 3.93 0 0 1 1.42 1.15 3.87 3.87 0 0 1 .67 1.62 11.77 11.77 0 0 1 .17 2.08 6.88 6.88 0 0 1-.65 3.18 4.59 4.59 0 0 1-2.35 2 15.86 15.86 0 0 1-4.6 1.07 70.16 70.16 0 0 1-7.42.31h-4.5c-2.25 0-4.14 0-5.68-.15a11.63 11.63 0 0 1-3.7-.75 3.84 3.84 0 0 1-2-1.8 7.4 7.4 0 0 1-.67-3.28H1.53a15.21 15.21 0 0 0 .28 3.07 7 7 0 0 0 1 2.48 6.43 6.43 0 0 0 1.93 1.88 10.69 10.69 0 0 0 3 1.32 24 24 0 0 0 4.36.78c1.69.17 3.66.23 5.91.23h4.51c2.76 0 5.15-.09 7.19-.29A32 32 0 0 0 35 109a12.85 12.85 0 0 0 3.55-1.48 7.77 7.77 0 0 0 2.18-2 6.85 6.85 0 0 0 1.1-2.56 15.32 15.32 0 0 0 .29-3.05A21.48 21.48 0 0 0 41.9 97z"/><path class="cls-1" d="M60.86 72.79h27.08a46.09 46.09 0 0 1 5.67.29 16.18 16.18 0 0 1 3.81.88 6.16 6.16 0 0 1 2.31 1.45 5.23 5.23 0 0 1 1.19 2 10.11 10.11 0 0 1 .43 2.62c0 1 .06 2 .06 3.22s0 2.36-.09 3.38a9.6 9.6 0 0 1-.53 2.8 5.72 5.72 0 0 1-1.46 2.21 7.75 7.75 0 0 1-2.84 1.58 22.92 22.92 0 0 1-4.67 1 61.77 61.77 0 0 1-7 .33H65.36v14.26h-4.5V72.79m4.51 18h19.5c2 0 3.69 0 5.06-.11a20.69 20.69 0 0 0 3.4-.38 5.55 5.55 0 0 0 2.07-.8 3 3 0 0 0 1.07-1.36 6.32 6.32 0 0 0 .4-2c0-.79.05-1.73.05-2.83s0-1.89-.05-2.63a5.16 5.16 0 0 0-.4-1.85 2.68 2.68 0 0 0-1.07-1.2 6.26 6.26 0 0 0-2.07-.69 24.25 24.25 0 0 0-3.4-.32c-1.36 0-3.05-.07-5.06-.07H65.36z"/><path class="cls-2" d="M60.86 72.79h27.08a46.09 46.09 0 0 1 5.67.29 16.13 16.13 0 0 1 3.81.88 6.16 6.16 0 0 1 2.31 1.45 5.23 5.23 0 0 1 1.19 2 10.11 10.11 0 0 1 .43 2.62c0 1 .06 2 .06 3.22s0 2.36-.09 3.38a9.63 9.63 0 0 1-.53 2.8 5.72 5.72 0 0 1-1.46 2.21 7.75 7.75 0 0 1-2.84 1.58 22.85 22.85 0 0 1-4.67 1 61.77 61.77 0 0 1-7 .33H65.36v14.26h-4.5V72.79zm4.51 18h19.5c2 0 3.69 0 5.06-.11a20.69 20.69 0 0 0 3.4-.38 5.55 5.55 0 0 0 2.07-.8 3 3 0 0 0 1.07-1.36 6.32 6.32 0 0 0 .4-2c0-.79.05-1.73.05-2.83s0-1.89-.05-2.63a5.16 5.16 0 0 0-.4-1.85 2.68 2.68 0 0 0-1.07-1.2 6.26 6.26 0 0 0-2.07-.69 24.25 24.25 0 0 0-3.4-.32c-1.36 0-3.05-.07-5.06-.07H65.36z"/><path class="cls-1" d="M134.48 72.79H128l-20.57 36.05h5.21l4.71-8.26h16.25c-.69-1.24-1.49-2.51-2.33-3.76H119.5l12-21 18.76 33.07H155l-20.5-36.05"/><path class="cls-2" d="M134.48 72.79H128l-20.57 36.05h5.21l4.71-8.26h16.25c-.69-1.24-1.49-2.51-2.33-3.76H119.5l12-21 18.76 33.07H155z"/><path class="cls-1" d="M206.25 84.06a13.25 13.25 0 0 0-.61-4.46 4.66 4.66 0 0 0-2-2.49 9 9 0 0 0-3.71-1.11q-2.29-.23-5.68-.23h-10.53c-2 0-3.68.05-5 .18a12.12 12.12 0 0 0-3.4.71 4.57 4.57 0 0 0-2.06 1.56 6.74 6.74 0 0 0-1.06 2.67 23.78 23.78 0 0 0-.37 4.1v5.8c0 2.25 0 4.19.06 5.81a24.75 24.75 0 0 0 .38 4.1 7 7 0 0 0 1 2.68 4.56 4.56 0 0 0 2.05 1.55 11.85 11.85 0 0 0 3.4.71c1.37.12 3 .18 5 .18h10.54c1.76 0 3.26 0 4.54-.14a17.19 17.19 0 0 0 3.24-.51 6.21 6.21 0 0 0 2.16-1 4.56 4.56 0 0 0 1.28-1.67 8 8 0 0 0 .62-2.39 29.16 29.16 0 0 0 .16-3.28h4.51a26.31 26.31 0 0 1-.28 4.07 10.61 10.61 0 0 1-1 3.24 7.74 7.74 0 0 1-1.91 2.45 9.81 9.81 0 0 1-3 1.71 20 20 0 0 1-4.36 1 49.12 49.12 0 0 1-5.92.32h-10.58a42 42 0 0 1-7-.5 15.08 15.08 0 0 1-4.66-1.54 7.57 7.57 0 0 1-2.82-2.57 11 11 0 0 1-1.47-3.64 25.08 25.08 0 0 1-.52-4.71c0-1.76-.07-3.7-.07-5.83s0-4.07.07-5.82a25.26 25.26 0 0 1 .52-4.72 10.9 10.9 0 0 1 1.47-3.63 7.69 7.69 0 0 1 2.82-2.58 15.21 15.21 0 0 1 4.66-1.52 40.72 40.72 0 0 1 7-.5h10.54a49.35 49.35 0 0 1 5.92.31 21 21 0 0 1 4.36 1 9.88 9.88 0 0 1 3 1.62 7.67 7.67 0 0 1 1.91 2.33 9.61 9.61 0 0 1 1 3 22.62 22.62 0 0 1 .28 3.76h-4.51"/><path class="cls-2" d="M206.25 84.06a13.25 13.25 0 0 0-.61-4.46 4.66 4.66 0 0 0-2-2.49 9 9 0 0 0-3.71-1.11q-2.29-.23-5.68-.23h-10.53c-2 0-3.68.05-5 .18a12.12 12.12 0 0 0-3.4.71 4.57 4.57 0 0 0-2.06 1.56 6.74 6.74 0 0 0-1.06 2.67 23.79 23.79 0 0 0-.37 4.1v5.8c0 2.25 0 4.19.06 5.81a24.75 24.75 0 0 0 .38 4.1 7 7 0 0 0 1 2.68 4.56 4.56 0 0 0 2.05 1.55 11.85 11.85 0 0 0 3.4.71c1.37.12 3 .18 5 .18h10.54c1.76 0 3.26 0 4.54-.14a17.18 17.18 0 0 0 3.24-.51 6.21 6.21 0 0 0 2.16-1 4.56 4.56 0 0 0 1.28-1.67 8 8 0 0 0 .62-2.39 29.16 29.16 0 0 0 .16-3.28h4.51a26.31 26.31 0 0 1-.28 4.07 10.61 10.61 0 0 1-1 3.24 7.74 7.74 0 0 1-1.91 2.45 9.81 9.81 0 0 1-3 1.71 20 20 0 0 1-4.36 1 49.13 49.13 0 0 1-5.92.32h-10.58a42 42 0 0 1-7-.5 15.08 15.08 0 0 1-4.66-1.54 7.57 7.57 0 0 1-2.82-2.57 11 11 0 0 1-1.47-3.64 25.08 25.08 0 0 1-.52-4.71c0-1.76-.07-3.7-.07-5.83s0-4.07.07-5.82a25.26 25.26 0 0 1 .52-4.72 10.9 10.9 0 0 1 1.47-3.63 7.69 7.69 0 0 1 2.82-2.58 15.21 15.21 0 0 1 4.66-1.52 40.72 40.72 0 0 1 7-.5h10.54a49.14 49.14 0 0 1 5.92.32 21 21 0 0 1 4.36 1 9.88 9.88 0 0 1 3 1.62 7.67 7.67 0 0 1 1.91 2.33 9.64 9.64 0 0 1 1 3 22.62 22.62 0 0 1 .28 3.76h-4.51z"/><path class="cls-1" d="M230.91 108.83V72.78h36.05v3.76h-31.55v12.01h30.04v3.77h-30.04v12.76h31.55v3.75h-36.05"/><path class="cls-2" d="M230.91 108.83V72.78h36.05v3.76h-31.55v12.01h30.04v3.77h-30.04v12.76h31.55v3.75h-36.05z"/><path class="cls-1" d="M288.32 108.83V72.78h34.55v3.76h-30.05v12.01h28.55v3.77h-28.55v16.51h-4.5"/><path class="cls-2" d="M288.32 108.83V72.78h34.55v3.76h-30.05v12.01h28.55v3.77h-28.55v16.51h-4.5z"/><path class="cls-1" d="M339.71 108.83V72.78h4.51v32.3h28.53v3.75h-33.04"/><path class="cls-2" d="M339.71 108.83V72.78h4.51v32.3h28.53v3.75h-33.04z"/><path class="cls-1" d="M388.68 72.79h4.5v36.05h-4.5z"/><path class="cls-2" d="M388.68 72.79h4.5v36.05h-4.5z"/><path class="cls-1" d="M453.92 84.06a13.28 13.28 0 0 0-.61-4.46 4.66 4.66 0 0 0-2-2.49 9 9 0 0 0-3.73-1.11c-1.54-.15-3.42-.23-5.68-.23h-12.07c-2 0-3.68.05-5.05.18a12.09 12.09 0 0 0-3.39.71 4.5 4.5 0 0 0-2.07 1.56 6.65 6.65 0 0 0-1.06 2.67 25 25 0 0 0-.38 4.1v5.8c0 2.25 0 4.19.06 5.81a25.34 25.34 0 0 0 .38 4.1 6.88 6.88 0 0 0 1 2.68 4.49 4.49 0 0 0 2.06 1.55 11.81 11.81 0 0 0 3.39.71q2.06.18 5.05.18h12.1c1.75 0 3.26 0 4.52-.14a17.13 17.13 0 0 0 3.24-.51 6.27 6.27 0 0 0 2.16-1 4.54 4.54 0 0 0 1.28-1.67 7.93 7.93 0 0 0 .61-2.39 29.29 29.29 0 0 0 .17-3.28v-2.26h-18.06v-3.76h22.59v6a26.37 26.37 0 0 1-.29 4.07 10.37 10.37 0 0 1-1 3.24 7.69 7.69 0 0 1-1.91 2.45 9.89 9.89 0 0 1-3 1.71 20.18 20.18 0 0 1-4.37 1 49 49 0 0 1-5.91.32h-12.1a42 42 0 0 1-7-.5 15.09 15.09 0 0 1-4.66-1.54 7.65 7.65 0 0 1-2.79-2.56 10.75 10.75 0 0 1-1.45-3.64 24.29 24.29 0 0 1-.54-4.71c0-1.76-.08-3.7-.08-5.83s0-4.07.08-5.82a24.38 24.38 0 0 1 .54-4.72 10.61 10.61 0 0 1 1.45-3.63 7.79 7.79 0 0 1 2.82-2.58 15.22 15.22 0 0 1 4.66-1.52 40.7 40.7 0 0 1 7-.5h12.02a49.14 49.14 0 0 1 5.91.31 20.89 20.89 0 0 1 4.36 1 10.09 10.09 0 0 1 3.05 1.62 7.55 7.55 0 0 1 1.91 2.33 9.41 9.41 0 0 1 1 3 22.57 22.57 0 0 1 .29 3.76h-4.51"/><path class="cls-2" d="M453.92 84.06a13.28 13.28 0 0 0-.61-4.46 4.66 4.66 0 0 0-2-2.49 9 9 0 0 0-3.73-1.11c-1.54-.15-3.42-.23-5.68-.23h-12.07c-2 0-3.68.05-5.05.18a12.09 12.09 0 0 0-3.39.71 4.5 4.5 0 0 0-2.07 1.56 6.64 6.64 0 0 0-1.06 2.67 25.05 25.05 0 0 0-.38 4.1v5.8c0 2.25 0 4.19.06 5.81a25.46 25.46 0 0 0 .38 4.1 6.91 6.91 0 0 0 1 2.68 4.49 4.49 0 0 0 2.06 1.55 11.81 11.81 0 0 0 3.39.71q2.06.18 5.05.18h12.1c1.75 0 3.26 0 4.52-.14a17.13 17.13 0 0 0 3.24-.51 6.27 6.27 0 0 0 2.16-1 4.54 4.54 0 0 0 1.28-1.67 8 8 0 0 0 .61-2.39 29.29 29.29 0 0 0 .17-3.28v-2.26h-18.06v-3.76h22.59v6a26.37 26.37 0 0 1-.29 4.07 10.37 10.37 0 0 1-1 3.24 7.69 7.69 0 0 1-1.91 2.45 9.9 9.9 0 0 1-3 1.71 20.18 20.18 0 0 1-4.37 1 49.06 49.06 0 0 1-5.91.32h-12.1a42 42 0 0 1-7-.5 15.09 15.09 0 0 1-4.66-1.54 7.66 7.66 0 0 1-2.82-2.57 10.8 10.8 0 0 1-1.45-3.64 24.37 24.37 0 0 1-.54-4.71c0-1.76-.08-3.7-.08-5.83s0-4.07.08-5.82a24.46 24.46 0 0 1 .54-4.72 10.66 10.66 0 0 1 1.45-3.63 7.8 7.8 0 0 1 2.82-2.58 15.22 15.22 0 0 1 4.66-1.52 40.7 40.7 0 0 1 7-.5h12.05a48.92 48.92 0 0 1 5.91.32 20.82 20.82 0 0 1 4.36 1 10.09 10.09 0 0 1 3.05 1.62 7.55 7.55 0 0 1 1.91 2.33 9.41 9.41 0 0 1 1 3 22.57 22.57 0 0 1 .29 3.76h-4.51z"/><path class="cls-1" d="M517.03 72.78h4.5v36.05h-4.5V92.32h-33.05v16.51h-4.52V72.78h4.52v15.77h33.05V72.78"/><path class="cls-2" d="M517.03 72.78h4.5v36.05h-4.5V92.32h-33.05v16.51h-4.52V72.78h4.52v15.77h33.05V72.78z"/><path class="cls-1" d="M575.91 72.78v3.76h-18.03v32.29h-4.51V76.54h-18.02v-3.76h40.56"/><path class="cls-2" d="M575.91 72.78v3.76h-18.03v32.29h-4.51V76.54h-18.02v-3.76h40.56z"/><path class="cls-1" d="M584.41 12.71C584.41 6 590.13.5 597.22.5S610 6 610 12.71s-5.73 12.2-12.8 12.2-12.81-5.46-12.81-12.2M541 53.19h.84c13-17.92 27.3-30.39 39.24-34.38a16 16 0 0 1-1.09-4.14c-12.18 6.27-26.2 20-39 38.52M603.35 27.77c6.69 15.74.82 47.1-16.09 78.77-21.14 39.56-51.48 64.56-67.78 55.85-8.71-4.65-8.24-20.71-5.86-38.16h-1.42c-3.8 20.63-4.69 39.22 4.91 44.35 16.91 9 49.27-18.57 72.27-61.65 17.54-32.81 24.58-65.12 19.46-82.65a17 17 0 0 1-5.48 3.49"/></g></g></svg>