<?xml version="1.0" encoding="UTF-8" standalone="no"?>
<svg width="24px" height="24px" viewBox="0 0 24 24" version="1.1" xmlns="http://www.w3.org/2000/svg" xmlns:xlink="http://www.w3.org/1999/xlink">
    <!-- Generator: Sketch 46.2 (44496) - http://www.bohemiancoding.com/sketch -->
    <title>Path Copy 9</title>
    <desc>Created with Sketch.</desc>
    <defs></defs>
    <g id="✎--About-Us" stroke="none" stroke-width="1" fill="none" fill-rule="evenodd">
        <g id="About-Us---1120" transform="translate(-48.000000, -2419.000000)" fill="#D0D2D5">
            <path d="M68.45175,2439.45025 L64.89225,2439.45025 L64.89225,2433.88075 C64.89225,2432.5525 64.86975,2430.844 63.04275,2430.844 C61.191,2430.844 60.90825,2432.2915 60.90825,2433.7855 L60.90825,2439.45025 L57.3525,2439.45025 L57.3525,2427.997 L60.765,2427.997 L60.765,2429.563 L60.81375,2429.563 C61.2885,2428.66225 62.4495,2427.71275 64.18125,2427.71275 C67.78575,2427.71275 68.45175,2430.08425 68.45175,2433.169 L68.45175,2439.45025 Z M53.33925,2426.4325 C52.1955,2426.4325 51.27375,2425.50775 51.27375,2424.36775 C51.27375,2423.2285 52.1955,2422.30375 53.33925,2422.30375 C54.47775,2422.30375 55.4025,2423.2285 55.4025,2424.36775 C55.4025,2425.50775 54.47775,2426.4325 53.33925,2426.4325 L53.33925,2426.4325 Z M55.11975,2439.45025 L51.5565,2439.45025 L51.5565,2427.997 L55.11975,2427.997 L55.11975,2439.45025 Z M71.00025,2419 L49.0005,2419 C48.44775,2419 48,2419.44775 48,2419.99975 L48,2441.9995 C48,2442.55225 48.44775,2443 49.0005,2443 L71.00025,2443 C71.55225,2443 72,2442.55225 72,2441.9995 L72,2419.99975 C72,2419.44775 71.55225,2419 71.00025,2419 L71.00025,2419 Z" id="Path-Copy-9"></path>
        </g>
    </g>
</svg>