<svg xmlns="http://www.w3.org/2000/svg" viewBox="0 0 106.23 20.31"><defs><style>.cls-1{fill:#231f20}</style></defs><title>SAP_Ariba_black</title><g id="Layer_2" data-name="Layer 2"><g id="Layer_1-2" data-name="Layer 1"><path class="cls-1" d="M0 13.26l1.87-1.11a3.33 3.33 0 0 0 3 1.92c1.14 0 2-.43 2-1.29s-.8-1.22-2.28-1.63c-2-.57-4.1-1.09-4.1-3.45 0-2.1 1.64-3.36 4.06-3.36A5.06 5.06 0 0 1 9 6.65L7.3 8a3.36 3.36 0 0 0-2.77-1.6c-1 0-1.63.46-1.63 1.13 0 .9.84 1.22 2.31 1.63 2 .53 4.08 1.16 4.08 3.49C9.3 14.41 7.93 16 4.79 16A5 5 0 0 1 0 13.26m9.75 2.55l4-11.3h2.36l4 11.3h-2.54l-.84-2.51H12.9l-.9 2.51zm3.76-4.3h2.65l-1.3-3.84zm7.82 4.3V4.55h4.1c2.4 0 4.59.64 4.59 3.6s-2.37 3.65-4.63 3.65h-1.6v4zm2.47-5.92h1.69c1.54 0 2.12-.59 2.12-1.67S27 6.58 25.48 6.58h-1.69zm10.58 5.92l4-11.3h2.32l4 11.3h-2.5l-.84-2.35h-3.85l-.87 2.35zm3.75-4.24h2.64l-1.3-3.76zm8 4.24v-8h2.36v1.41h-.09a2.89 2.89 0 0 1 2.73-1.88h.08v2.27h-.59a2.67 2.67 0 0 0-2.11 1.16v5zm6.59-11.3h2.36v1.88h-2.37zm0 3.3h2.36v8h-2.37zm6.59 7v1H57V4.51h2.35v4.43a2.94 2.94 0 0 1 2.52-1.41c1.84 0 3.13 1.41 3.13 4.2s-1.31 4.18-3.16 4.18a2.93 2.93 0 0 1-2.48-1.08m3.21-3.08c0-1.35-.5-2.2-1.59-2.2a2.58 2.58 0 0 0-1.62.79v3a2.16 2.16 0 0 0 1.65.74c1 0 1.56-.85 1.56-2.32m3.39 2c0-1.87 1.4-2.9 5.17-3.19v-.2c0-.59-.35-1-1.14-1a4.37 4.37 0 0 0-2.68 1L66.23 9a5.74 5.74 0 0 1 4.06-1.44c2.21 0 3.15 1.09 3.15 3.17v3.11a6.24 6.24 0 0 0 .17 2h-2.43a4.78 4.78 0 0 1-.18-1.22 3.53 3.53 0 0 1-2.8 1.3 2.15 2.15 0 0 1-2.29-2.19m5.17-.35v-1.5c-1.89.2-2.79.68-2.79 1.43 0 .52.39.77.92.77a2.66 2.66 0 0 0 1.87-.7M102.83 19.68L92.17 0h2.37a1.17 1.17 0 0 1 1 .63l10.66 19.68h-2.36a1.17 1.17 0 0 1-1-.62m-20 .63h2.36a1.17 1.17 0 0 0 1-.62l2.91-5.38-1.53-2.82zm-4.54 0a1.17 1.17 0 0 0 1-.62l8.3-15.31 8.3 15.31a1.17 1.17 0 0 0 1 .63h2.36L88.66.63a1.17 1.17 0 0 0-2.07 0L75.93 20.31z"/></g></g></svg>