<svg xmlns="http://www.w3.org/2000/svg" viewBox="0 0 826.12 209.02"><defs><style>.cls-1{fill:none}.cls-2{clip-path:url(#clip-path)}</style><clipPath id="clip-path"><path class="cls-1" d="M0 0h826.11v209.02H0z"/></clipPath></defs><title>Pinterest_logo_black</title><g id="Layer_2" data-name="Layer 2"><g id="svg2"><g id="g10"><g id="g12"><g class="cls-2" id="g14"><g id="g16"><path id="path22" d="M431.9 99.52c8.75 0 11.78 5.31 11.78 11.64 0 10.72-8.31 17.26-21.32 17.26a55.66 55.66 0 0 1-15-2.38c1.61-9.86 7.94-26.51 24.53-26.51m187.94 0c8 0 11.79 5.31 11.79 11.64 0 10.72-8.3 17.26-21.29 17.26a55.36 55.36 0 0 1-15-2.38c1.6-9.86 8.75-26.51 24.5-26.51m178.17.89h20c2.75 0 4.37-1.11 5-3.67.9-3.7 2.5-10.14 3-11.89.59-2.3-.75-4.06-3.29-4.06h-19.82c1.42-5.66 7-24.08 7-36.08 0-24-20.35-44.33-49.23-44.33-32.61-.01-53.83 21.86-53.83 52.6a52.69 52.69 0 0 0 7.52 26q-2.6-.18-5.37-.18c-24.78 0-40.38 13.45-40.38 33 0 18.35 14.48 25.48 28.09 30.23 12.1 4.21 23.24 6.18 23.24 15.63 0 6.37-6.12 10.11-18.11 10.11-14.24 0-22.08-6.7-24.05-9.24a9.79 9.79 0 0 0 3.34-7.8c0-5.88-4.11-10.67-11.79-10.67-6.5 0-12 5.3-13.37 12.26-10.41 8.53-21.79 14.06-37.91 14.06-15.92 0-24.16-8.28-24.16-25.85 3.73 1.13 13.44 2.5 19.85 2.5 26.9 0 45.23-12.22 45.23-36.72 0-13.16-11.55-27-34.42-27h-.07c-30.07 0-46.89 19-54.26 40q-3.09-.76-6.2-1.45a47.44 47.44 0 0 0 2.85-16c0-10.37-6.41-22.57-23.56-22.57-11.95 0-23.28 7.81-31.13 19.54 1.95-7.65 3.24-12.73 3.34-13.06.5-2-.34-4.24-3.45-4.24h-17.6c-2.49 0-4.28.88-5 3.75-.46 1.94-6.52 25.7-12.46 48.77-3.69 14.4-22.86 32.35-47 32.35-15.9 0-24.12-8.81-24.12-26.4 4.15 1.64 13.42 3 19.8 3 28 0 45.25-12.22 45.25-36.72 0-13.16-11.55-27-34.4-27h-.07c-33.85 0-54.59 26.3-58.12 56.12-1.46 12.4-11.92 29.41-23.26 29.41-5.52 0-8.61-3.46-8.61-9.36 0-5.08 3.58-17.52 7.51-33.13 1.31-5.2 3.31-13.16 5.52-22H378c2.72 0 4.33-1.11 4.95-3.67.89-3.7 2.49-10.14 3-11.89.61-2.3-.74-4.06-3.3-4.06h-18.2s8.33-33.25 8.53-34.11c.81-3.38-2-5.33-5-4.71 0 0-14 2.73-16.6 3.28s-4.62 2-5.58 5.72l-7.41 29.81h-14.48c-2.75 0-4.35 1.13-5 3.69-.9 3.68-2.52 10.13-3 11.88-.6 2.3.75 4 3.31 4h14.25c-.1.42-5.14 19.61-9.22 36.81-1.91 8.28-8.35 27.62-18.9 27.62-6.29 0-8.95-3.18-8.95-10 0-10.73 10.55-37.59 10.55-49.76 0-16.28-8.73-25.72-26.62-25.72-11.29 0-23 7.29-27.93 13.68 0 0 1.5-5.22 2-7.25a3.21 3.21 0 0 0-3.39-4.2h-17.4c-3.74 0-4.75 2-5.29 4.17-.23.89-6.53 25.64-12.57 49.39-4.15 16.41-14.2 29.98-24.94 29.98-5.55 0-8-3.47-8-9.38 0-5.09 3.27-17.63 7.21-33.25 4.77-19 9-34.59 9.43-36.44.55-2.31-.45-4.33-3.45-4.33h-17.6c-3.18 0-4.34 1.66-5 4 0 0-5 18.73-10.2 39.62-3.8 15.15-8 30.59-8 37.82 0 13 5.8 22.69 21.78 22.69 12.31 0 22.08-6.25 29.52-14.22-1.09 4.32-1.79 7.05-1.87 7.32-.64 2.48.13 4.64 3 4.64h18c3.13 0 4.33-1.25 5-4s14.1-55.47 14.1-55.47c3.56-14.22 12.34-23.63 24.73-23.63 5.86 0 10.94 3.89 10.34 11.42-.65 8.32-10.65 38.16-10.65 51.24 0 9.9 3.66 22.72 22.31 22.72 12.73 0 22.1-6.1 28.89-14 2.48 8.35 9.1 14 21.2 14 20.12 0 32.26-11.94 39.37-23.92 5.93 13.93 19.78 23.92 40.1 23.92a65.07 65.07 0 0 0 48.08-20.59c-2 8-3.43 13.44-3.55 13.89-.65 2.49.45 4.48 3.38 4.48h17.83a4.59 4.59 0 0 0 4.8-3.83c.31-1.25 2.89-11.2 6.54-25.34 7-27 18.13-55.12 34.91-55.12 5.93 0 8.37 3.3 8.37 8.53a12.61 12.61 0 0 1-1.35 5.73c-8.14-1.63-14.68 2.38-14.68 11.08 0 5.67 6 10.82 14 10.82 6.15 0 11.24-1.5 15.29-4.24 3.78.79 7.84 1.66 11.93 2.6a79 79 0 0 0-.94 11.84c0 21.73 16.31 40.16 44.1 40.16 21.79 0 35.74-7.31 48.84-18.18 6.21 10.15 21.88 18.34 42.43 18.34 28.14 0 44.13-14.65 44.13-34 0-17.52-14.39-24-29.22-29.33-12.05-4.35-22.11-6.72-22.11-15.24 0-7 5.51-10.18 14.93-10.18a46.6 46.6 0 0 1 13.16 2c2.43 6.1 7.46 12.83 16 12.83 7.26 0 10.52-5.73 10.52-11 0-15.07-25.08-16.64-25.08-49 0-20.08 11.36-36.65 34.92-36.65 16.36 0 27.06 10.37 27.06 27.1 0 13.81-8.39 38.38-8.39 38.38h-14.18c-2.73 0-4.34 1.13-5 3.69-.9 3.68-2.51 10.13-3 11.88-.59 2.3.74 4 3.32 4H772s-14.36 53-14.36 62.62c0 13 7.29 22.68 23.25 22.68 22.61 0 36.73-14.66 42.87-36a2.17 2.17 0 0 0-2.15-3H813a3.07 3.07 0 0 0-3.16 2.65c-1.95 7.58-6.77 15.55-16.27 15.55-5.52 0-8.61-3.46-8.61-9.36 0-5.08 3.37-17 7.52-33.13 2-7.67 5.49-22 5.49-22"/><path id="path24" d="M209.14 53.85c-.63 9.31-8.43 16.86-17.4 16.86S176 63.16 176.63 53.85 185.06 37 194 37s15.75 7.54 15.12 16.84"/><path id="path26" d="M83.75 0C29 0 0 36.71 0 76.72c0 18.58 9.89 41.72 25.72 49.09 2.41 1.12 3.68.63 4.23-1.69.42-1.77 2.57-10.36 3.53-14.38a3.78 3.78 0 0 0-.89-3.65c-5.21-6.33-9.41-18-9.41-28.91 0-27.95 21.17-55 57.22-55 31.16 0 52.94 21.21 52.94 51.55 0 34.29-17.29 58-39.83 58-12.45 0-21.76-10.27-18.78-22.91 3.59-15.06 10.5-31.33 10.5-42.18 0-9.75-5.23-17.87-16-17.87-12.75.05-22.97 13.23-22.97 30.85a45.59 45.59 0 0 0 3.8 18.81s-12.56 53.13-14.85 63c-3.91 16.78.51 44 .9 46.34a1.31 1.31 0 0 0 2.41.63c1.23-1.65 16.38-24.36 20.66-40.78 1.52-5.93 7.88-30.13 7.88-30.13 4.15 7.88 16.21 14.55 29.05 14.55 38.22 0 65.78-35.17 65.78-78.84 0-41.86-34.17-73.2-78.14-73.2"/></g></g></g></g></g></g></svg>