<svg width="24" height="24" viewBox="0 0 24 24" xmlns="http://www.w3.org/2000/svg"><title>Calendar Icon</title><path d="M9.5 4h5a.5.5 0 1 0 0-1h-5a.5.5 0 0 0 0 1zm7.499 1.633a1 1 0 1 1-.998 0A.507.507 0 0 1 16 5.6V.5a.5.5 0 1 1 1 0v5.099l-.001.034zm-9 0a1 1 0 1 1-.998 0A.507.507 0 0 1 7 5.6V.5a.5.5 0 0 1 1 0v5.099l-.001.034zM1 9h22V5.5A1.5 1.5 0 0 0 21.5 4h-3a.5.5 0 1 1 0-1h3A2.5 2.5 0 0 1 24 5.5v16a2.5 2.5 0 0 1-2.5 2.5h-19A2.5 2.5 0 0 1 0 21.5v-16A2.5 2.5 0 0 1 2.5 3h3a.5.5 0 0 1 0 1h-3A1.5 1.5 0 0 0 1 5.5V9zm0 1v11.5A1.5 1.5 0 0 0 2.5 23h19a1.5 1.5 0 0 0 1.5-1.5V10H1z" fill-rule="nonzero" fill="#fff"/></svg>