<svg xmlns="http://www.w3.org/2000/svg" width="24" height="24" viewBox="0 0 24 24">
  <path fill="#FFFFFF" fill-rule="evenodd" d="M19,11.9997 L5,11.9997 C4.724,11.9997 4.5,12.2237 4.5,12.4997 C4.5,12.7757 4.724,12.9997 5,12.9997 L19,12.9997 C19.276,12.9997 19.5,12.7757 19.5,12.4997 C19.5,12.2237 19.276,11.9997 19,11.9997 L19,11.9997 Z M5,8.9997 L14,8.9997 C14.276,8.9997 14.5,8.7757 14.5,8.4997 C14.5,8.2237 14.276,7.9997 14,7.9997 L5,7.9997 C4.724,7.9997 4.5,8.2237 4.5,8.4997 C4.5,8.7757 4.724,8.9997 5,8.9997 L5,8.9997 Z M22,17.4997 C22,17.7757 21.776,17.9997 21.5,17.9997 L13.443,17.9997 C13.069,17.9997 12.711,18.1387 12.434,18.3907 L8.143,22.2907 L6.804,18.9427 C6.575,18.3697 6.028,17.9997 5.411,17.9997 L2.5,17.9997 C2.224,17.9997 2,17.7757 2,17.4997 L2,3.4997 C2,3.2247 2.224,2.9997 2.5,2.9997 L21.5,2.9997 C21.776,2.9997 22,3.2247 22,3.4997 L22,17.4997 Z M21.5,1.9997 L2.5,1.9997 C1.671,1.9997 1,2.6717 1,3.4997 L1,17.4997 C1,18.3287 1.671,18.9997 2.5,18.9997 L5.411,18.9997 C5.616,18.9997 5.8,19.1247 5.875,19.3137 L7.482,23.3307 C7.563,23.5327 7.753,23.6457 7.948,23.6457 C8.066,23.6457 8.186,23.6037 8.283,23.5157 L13.107,19.1297 C13.199,19.0467 13.319,18.9997 13.443,18.9997 L21.5,18.9997 C22.329,18.9997 23,18.3287 23,17.4997 L23,3.4997 C23,2.6717 22.329,1.9997 21.5,1.9997 L21.5,1.9997 Z"/>
</svg>
