<svg xmlns="http://www.w3.org/2000/svg" width="24" height="24" viewBox="0 0 24 24"><path fill="#FFF" fill-rule="evenodd" d="M12 11.25a.75.75 0 0 1 0 1.5.75.75 0 0 1 0-1.5zm0 2.5c.965 0 1.75-.785 1.75-1.75s-.785-1.75-1.75-1.75-1.75.785-1.75 1.75.785 1.75 1.75 1.75zm2.042.292l-5.578 1.494 1.494-5.577 5.578-1.494-1.494 5.577zm2.071-6.768L9.421 9.067a.506.506 0 0 0-.354.354l-1.793 6.692a.5.5 0 0 0 .613.614l6.692-1.793a.505.505 0 0 0 .354-.355l1.793-6.692a.5.5 0 0 0-.613-.613zm-3.613 14.7v-2.34a.5.5 0 1 0-1 0v2.34c-5.114-.254-9.22-4.36-9.475-9.474h2.341a.5.5 0 1 0 0-1H2.025C2.28 6.386 6.386 2.28 11.5 2.025v2.34a.5.5 0 1 0 1 0v-2.34c5.114.255 9.22 4.36 9.475 9.475h-2.341a.5.5 0 1 0 0 1h2.341c-.255 5.114-4.361 9.22-9.475 9.475zM12 1C5.925 1 1 5.925 1 12s4.925 11 11 11 11-4.925 11-11S18.075 1 12 1z"/></svg>