<svg xmlns="http://www.w3.org/2000/svg" viewBox="0 0 192.3 412"><defs><style>.cls-1{fill:#d0d2d5;}</style></defs><title>facebook_social</title><g id="Layer_2" data-name="Layer 2"><g id="Layer_1-2" data-name="Layer 1"><g id="_020201ff" data-name="#020201ff"><path class="cls-1" d="M63.37,21.23C79.44,5.93,102.29.76,123.85.12,146.65-.09,169.44,0,192.23,0q.13,36.08,0,72.16c-14.73,0-29.48,0-44.21,0-9.34-.58-18.94,6.5-20.64,15.76-.22,16.09-.08,32.2-.07,48.29,21.61.09,43.22,0,64.83.05-1.58,23.28-4.47,46.46-7.86,69.54-19.09.18-38.19,0-57.27.1-.17,68.67.09,137.33-.13,206-28.35.12-56.72-.05-85.07.08-.54-68.67,0-137.38-.29-206.07-13.83-.14-27.67.1-41.5-.12.05-23.09,0-46.17,0-69.25,13.82-.17,27.65,0,41.48-.1.42-22.44-.42-44.91.44-67.33C43.33,51.38,50.09,33.49,63.37,21.23Z"/></g></g></g></svg>