<svg xmlns="http://www.w3.org/2000/svg" width="24" height="24" viewBox="0 0 24 24">
  <path fill="#FFFFFF" fill-rule="evenodd" d="M17,17.9998 L7,17.9998 C6.724,17.9998 6.5,18.2238 6.5,18.4998 C6.5,18.7758 6.724,18.9998 7,18.9998 L17,18.9998 C17.276,18.9998 17.5,18.7758 17.5,18.4998 C17.5,18.2238 17.276,17.9998 17,17.9998 L17,17.9998 Z M6.5,14.4998 C6.5,14.7758 6.724,14.9998 7,14.9998 L17,14.9998 C17.276,14.9998 17.5,14.7758 17.5,14.4998 C17.5,14.2238 17.276,13.9998 17,13.9998 L7,13.9998 C6.724,13.9998 6.5,14.2238 6.5,14.4998 L6.5,14.4998 Z M7,10.9998 L14,10.9998 C14.276,10.9998 14.5,10.7758 14.5,10.4998 C14.5,10.2238 14.276,9.9998 14,9.9998 L7,9.9998 C6.724,9.9998 6.5,10.2238 6.5,10.4998 C6.5,10.7758 6.724,10.9998 7,10.9998 L7,10.9998 Z M20,21.4998 C20,21.7758 19.776,21.9998 19.5,21.9998 L4.5,21.9998 C4.224,21.9998 4,21.7758 4,21.4998 L4,2.4998 C4,2.2248 4.224,1.9998 4.5,1.9998 L15,1.9998 L15,6.4998 C15,6.7758 15.224,6.9998 15.5,6.9998 L20,6.9998 L20,21.4998 Z M16,2.4138 L19.585,5.9998 L16,5.9998 L16,2.4138 Z M20.561,5.5608 L16.439,1.4388 C16.158,1.1578 15.776,0.9998 15.379,0.9998 L4.5,0.9998 C3.671,0.9998 3,1.6718 3,2.4998 L3,21.4998 C3,22.3288 3.671,22.9998 4.5,22.9998 L19.5,22.9998 C20.329,22.9998 21,22.3288 21,21.4998 L21,6.6218 C21,6.2238 20.842,5.8418 20.561,5.5608 L20.561,5.5608 Z"/>
</svg>
