<svg xmlns="http://www.w3.org/2000/svg" width="24" height="24" viewBox="0 0 24 24"><path fill-rule="evenodd" d="M7.5 7.5a1 1 0 0 0 1-1 .987.987 0 0 0-.5-.847V1a.5.5 0 0 0-1 0v4.653a.987.987 0 0 0-.5.847 1 1 0 0 0 1 1zm9 0a1 1 0 0 0 1-1 .987.987 0 0 0-.5-.847V1a.5.5 0 0 0-1 0v4.653a.987.987 0 0 0-.5.847 1 1 0 0 0 1 1zM9.5 4h5a.5.5 0 0 0 0-1h-5a.5.5 0 0 0 0 1zM22 20c0 .552-.449 1-1 1H3c-.551 0-1-.448-1-1V10h20v10zM21 3h-2.5a.5.5 0 0 0 0 1H21c.551 0 1 .448 1 1v4H2V5c0-.552.449-1 1-1h2.5a.5.5 0 0 0 0-1H3c-1.103 0-2 .897-2 2v15c0 1.103.897 2 2 2h18c1.103 0 2-.897 2-2V5c0-1.103-.897-2-2-2z"/></svg>